<svg width="25" height="22" viewBox="0 0 25 22" fill="none" xmlns="http://www.w3.org/2000/svg">
<path d="M21.875 3.12499H19.5312L18.75 1.56248C18.2898 0.653101 18.0508 0 17.1875 0H7.81247C6.9492 0 6.66404 0.745315 6.24995 1.56248L5.46869 3.12499H3.12499C1.3992 3.12499 0 4.5242 0 6.24999V18.75C0 20.4757 1.3992 21.875 3.12499 21.875H21.875C23.6008 21.875 25 20.4758 25 18.75V6.24999C24.9999 4.52424 23.6007 3.12499 21.875 3.12499ZM12.5 18.75C9.04843 18.75 6.24999 15.9516 6.24999 12.5C6.24999 9.04848 9.04843 6.25003 12.5 6.25003C15.9515 6.25003 18.75 9.04848 18.75 12.5C18.75 15.9516 15.9516 18.75 12.5 18.75Z" fill="#6C767D"/>
<path d="M12.5 7.8125C9.91095 7.8125 7.8125 9.91095 7.8125 12.5C7.8125 15.0891 9.91095 17.1875 12.5 17.1875C15.0891 17.1875 17.1875 15.0891 17.1875 12.5C17.1875 9.91091 15.0891 7.8125 12.5 7.8125Z" fill="#6C767D"/>
</svg>
