<svg width="20" height="20" viewBox="0 0 20 20" fill="none" xmlns="http://www.w3.org/2000/svg">
<g clip-path="url(#clip0)">
<path d="M18.9733 7.28073L8.80906 17.3322C7.1249 18.9978 4.39409 18.9978 2.70994 17.3322C1.02578 15.6666 1.02578 12.9665 2.70994 11.3009L11.8583 2.25468C12.9813 1.14449 14.8011 1.14449 15.9242 2.25468C17.0472 3.36482 17.0472 5.16539 15.9242 6.27554L6.77578 15.3218C6.21463 15.8772 5.30436 15.8772 4.7425 15.3218C4.18135 14.7671 4.18135 13.8668 4.7425 13.3113L12.8742 5.2703L11.8576 4.26511L3.72659 12.3068C2.60358 13.417 2.60358 15.2175 3.72659 16.3277C4.8496 17.4379 6.66943 17.4379 7.79243 16.3277L16.9408 7.28145C18.625 5.61587 18.625 2.91578 16.9408 1.25016C15.2566 -0.415419 12.5258 -0.415419 10.8417 1.25016L1.18498 10.799L1.21998 10.8339C-0.534165 13.0643 -0.379956 16.2884 1.69331 18.3381C3.76658 20.3878 7.02567 20.5413 9.28167 18.8057L9.31667 18.8407L19.9893 8.28665L18.9733 7.28073Z" fill="#052D41"/>
</g>
<defs>
<clipPath id="clip0">
<rect width="20" height="20" fill="white"/>
</clipPath>
</defs>
</svg>
