<svg width="14" height="14" viewBox="0 0 14 14" fill="none" xmlns="http://www.w3.org/2000/svg">
<g clip-path="url(#clip0)">
<path d="M1.38126 13.9882C1.46868 13.9882 1.5567 13.9798 1.64297 13.9631L4.46798 13.4167C5.286 13.7432 6.15018 13.9086 7.03987 13.9086C7.06396 13.9086 7.08808 13.9084 7.11222 13.9082C8.04612 13.8987 8.95165 13.7057 9.80373 13.3348C10.6255 12.977 11.3622 12.4698 11.9934 11.8272C12.6246 11.1847 13.1187 10.4391 13.4619 9.61104C13.8177 8.7526 13.9948 7.84387 13.9881 6.91008C13.9816 5.98191 13.7947 5.08134 13.4327 4.23347C13.083 3.41463 12.5853 2.67895 11.9533 2.04692C11.3213 1.41489 10.5856 0.917155 9.76677 0.567467C8.9189 0.205428 8.01838 0.0185024 7.09019 0.0118825C7.07362 0.0117655 7.05666 0.0117188 7.0402 0.0117188C6.11155 0.0117188 5.2086 0.193428 4.35638 0.551748C3.53389 0.897576 2.79367 1.3925 2.15629 2.02276C1.51857 2.65334 1.01536 3.3882 0.660577 4.20697C0.292714 5.05593 0.101344 5.95781 0.0918231 6.8876C0.0824429 7.80265 0.247708 8.69129 0.583267 9.53202L0.0368986 12.3571C-0.0410671 12.7602 0.0639632 13.1729 0.325042 13.4894C0.586658 13.8064 0.971645 13.9882 1.38126 13.9882ZM1.02079 12.5474L1.60344 9.53485C1.61748 9.4622 1.60931 9.38699 1.57993 9.31904C1.2593 8.57793 1.0851 7.75874 1.09389 6.89787C1.1272 3.64317 3.79048 1.01381 7.0402 1.01381C7.05432 1.01381 7.0689 1.01386 7.08307 1.01397C10.333 1.03709 12.963 3.66726 12.9861 6.91719C13.0092 10.1861 10.3709 12.8728 7.10204 12.9061C7.08127 12.9064 7.06059 12.9065 7.03987 12.9065C6.20176 12.9065 5.40418 12.733 4.68099 12.4201C4.6347 12.4001 4.58501 12.3899 4.53507 12.3899C4.51173 12.3899 4.48833 12.3921 4.4652 12.3966L1.45263 12.9792C1.42849 12.9839 1.40468 12.9861 1.38129 12.9861C1.15644 12.9861 0.975902 12.7795 1.02079 12.5474Z" fill="#4D5052"/>
<path d="M1.38124 13.9999C0.96809 13.9999 0.579829 13.8165 0.31599 13.4968C0.0526889 13.1776 -0.0532303 12.7614 0.0253903 12.3549L0.571127 9.53315C0.235942 8.6922 0.0707241 7.80204 0.0801043 6.88746C0.0896483 5.95613 0.281346 5.05271 0.649818 4.20229C1.00519 3.38214 1.50927 2.64604 2.14803 2.01441C2.78652 1.38305 3.52798 0.887307 4.3518 0.540918C5.20551 0.18199 6.11001 0 7.04017 0C7.05667 0 7.07365 4.67841e-05 7.09026 0.000163744C8.01997 0.00678369 8.92204 0.194037 9.77134 0.556707C10.5916 0.90698 11.3285 1.40558 11.9615 2.03866C12.5945 2.6717 13.0931 3.4086 13.4434 4.22888C13.806 5.07823 13.9933 5.98027 13.9998 6.91001C14.0064 7.84534 13.8291 8.7556 13.4726 9.61553C13.1289 10.4449 12.634 11.1918 12.0017 11.8354C11.3695 12.4791 10.6316 12.9871 9.80834 13.3455C8.95481 13.7171 8.04772 13.9103 7.11229 13.9199C6.19731 13.9283 5.30727 13.7638 4.46681 13.4289L1.64517 13.9746C1.5582 13.9914 1.4694 13.9999 1.38124 13.9999ZM7.04017 0.023392C6.11315 0.023392 5.21169 0.204774 4.36087 0.562509C3.53979 0.907728 2.80083 1.40182 2.16448 2.03106C1.52784 2.66056 1.02547 3.39421 0.671292 4.2116C0.304036 5.05912 0.112994 5.9595 0.103496 6.88772C0.0941395 7.80041 0.259217 8.68863 0.594121 9.52767L0.595384 9.53088L0.594729 9.53425L0.0483613 12.3593C-0.028926 12.759 0.075192 13.1681 0.334048 13.4819C0.593419 13.7962 0.975108 13.9765 1.38124 13.9765C1.46791 13.9765 1.55521 13.9681 1.64073 13.9516L4.46911 13.4046L4.47229 13.4058C5.3108 13.7405 6.19865 13.9049 7.11206 13.8965C8.04432 13.887 8.94836 13.6944 9.79901 13.3241C10.6194 12.9669 11.3549 12.4605 11.985 11.819C12.6152 11.1776 13.1084 10.4332 13.451 9.60655C13.8063 8.74951 13.983 7.84232 13.9764 6.91015C13.9699 5.98354 13.7833 5.08452 13.4219 4.23805C13.0728 3.42053 12.5759 2.68611 11.9449 2.0552C11.314 1.42425 10.5796 0.927331 9.76214 0.578228C8.91572 0.216774 8.0167 0.0301523 7.09007 0.0235558C7.07355 0.0234388 7.05662 0.023392 7.04017 0.023392ZM1.38126 12.9978C1.2683 12.9978 1.16178 12.9472 1.08898 12.859C1.0167 12.7714 0.987646 12.657 1.00928 12.5452L1.59193 9.53261C1.60557 9.46192 1.59771 9.38966 1.56915 9.32365C1.23738 8.55683 1.07354 7.74062 1.08215 6.89771C1.09829 5.32115 1.72707 3.83995 2.85265 2.72695C3.97752 1.61464 5.4647 1.00207 7.0402 1.00207C7.05435 1.00207 7.06895 1.00212 7.08317 1.00223C8.65804 1.01344 10.1389 1.63316 11.2529 2.74721C12.3669 3.86128 12.9866 5.34216 12.9978 6.91705C13.0209 10.1924 10.3762 12.8843 7.10216 12.9178C6.25888 12.9262 5.44266 12.7623 4.67634 12.4308C4.61075 12.4024 4.53753 12.3944 4.4674 12.4081L1.45481 12.9907C1.43046 12.9954 1.40571 12.9978 1.38126 12.9978ZM7.04017 1.02548C5.47087 1.02548 3.98955 1.63567 2.86909 2.74361C1.74793 3.85225 1.12164 5.32761 1.10554 6.89796C1.09696 7.73757 1.26016 8.55056 1.59062 9.31439C1.62106 9.3847 1.62945 9.46171 1.61488 9.53705L1.03223 12.5496C1.01193 12.6546 1.03918 12.7619 1.10699 12.8441C1.17532 12.9269 1.2753 12.9744 1.38124 12.9744C1.40419 12.9744 1.42746 12.9722 1.45036 12.9677L4.46293 12.3851C4.53762 12.3707 4.61566 12.3791 4.6856 12.4094C5.44888 12.7396 6.26187 12.9027 7.10191 12.8944C10.3631 12.8611 12.9974 10.1798 12.9743 6.91724C12.9632 5.34852 12.346 3.87347 11.2364 2.76377C10.1267 1.6541 8.65168 1.03681 7.08296 1.02565C7.06883 1.02555 7.0543 1.02548 7.04017 1.02548Z" fill="#4D5052"/>
</g>
<defs>
<clipPath id="clip0">
<rect width="14" height="14" fill="white"/>
</clipPath>
</defs>
</svg>
