<svg width="14" height="14" viewBox="0 0 14 14" fill="none" xmlns="http://www.w3.org/2000/svg">
<g clip-path="url(#clip0)">
<path d="M12.7508 12.5013C13.0655 12.5013 13.3382 12.3974 13.57 12.1923L9.60358 8.22568C9.50841 8.29382 9.41617 8.36009 9.32904 8.4231C9.03221 8.64179 8.7913 8.81245 8.60631 8.93473C8.42135 9.0573 8.17525 9.18223 7.86805 9.30977C7.56065 9.43747 7.27427 9.50112 7.0086 9.50112H7.00082H6.99304C6.72735 9.50112 6.44097 9.4375 6.13359 9.30977C5.82621 9.18223 5.58012 9.0573 5.39533 8.93473C5.21037 8.81245 4.96958 8.64182 4.6726 8.4231C4.58984 8.36243 4.49806 8.29586 4.39883 8.22461L0.431641 12.1923C0.663426 12.3974 0.936286 12.5013 1.25096 12.5013H12.7508Z" fill="#6C767D"/>
<path d="M0.789147 5.72861C0.492343 5.53073 0.229142 5.3041 0 5.04883V11.0837L3.49599 7.58767C2.79659 7.09939 1.89546 6.48042 0.789147 5.72861Z" fill="#6C767D"/>
<path d="M13.2192 5.7286C12.1551 6.44884 11.2507 7.06888 10.5059 7.58906L14.0004 11.0838V5.04883C13.7764 5.29896 13.516 5.52544 13.2192 5.7286Z" fill="#6C767D"/>
<path d="M12.7497 1.50195H1.24992C0.848726 1.50195 0.540281 1.63743 0.324204 1.9081C0.107949 2.17891 0 2.51757 0 2.92372C0 3.25179 0.143255 3.60726 0.429637 3.99023C0.71602 4.37305 1.02075 4.67374 1.34369 4.89246C1.52072 5.01754 2.0546 5.38869 2.94531 6.00578C3.42614 6.33899 3.84429 6.62941 4.20362 6.88003C4.50991 7.09344 4.77405 7.27825 4.99213 7.43162C5.01717 7.44918 5.05654 7.47735 5.1088 7.51471C5.1651 7.55515 5.23635 7.60647 5.32424 7.66994C5.4935 7.79235 5.63411 7.8913 5.7461 7.96689C5.85794 8.04251 5.99344 8.12698 6.1524 8.22077C6.31124 8.31443 6.46105 8.38487 6.60166 8.43171C6.7423 8.47853 6.87249 8.50202 6.99226 8.50202H7.00004H7.00781C7.12756 8.50202 7.25777 8.47853 7.39844 8.43171C7.53902 8.38487 7.68871 8.31458 7.84767 8.22077C8.00648 8.12698 8.14181 8.04233 8.254 7.96689C8.36599 7.8913 8.5066 7.79238 8.67588 7.66994C8.7636 7.60647 8.83485 7.55513 8.89115 7.51484C8.94343 7.47732 8.98278 7.44934 9.00797 7.43162C9.17786 7.3134 9.44261 7.12935 9.79856 6.88219C10.4463 6.43217 11.4001 5.76981 12.6642 4.89246C13.0444 4.62692 13.362 4.30648 13.6173 3.93159C13.8721 3.5567 13.9998 3.16346 13.9998 2.752C13.9998 2.40822 13.876 2.11406 13.6288 1.86906C13.3813 1.62437 13.0883 1.50195 12.7497 1.50195Z" fill="#6C767D"/>
</g>
<defs>
<clipPath id="clip0">
<rect width="14" height="14" fill="white"/>
</clipPath>
</defs>
</svg>
