<svg width="14" height="14" viewBox="0 0 14 14" fill="none" xmlns="http://www.w3.org/2000/svg">
<path d="M6.98238 8.12488C7.40021 8.12488 7.74015 7.78496 7.74015 7.36713C7.74015 6.94929 7.40021 6.60938 6.98238 6.60938C6.56454 6.60938 6.22461 6.94929 6.22461 7.36713C6.22461 7.78496 6.56454 8.12488 6.98238 8.12488Z" fill="#6C767D"/>
<path d="M7.37136 8.94531H6.59478C5.82956 8.94531 5.20703 9.56782 5.20703 10.333V10.3735C5.74838 10.658 6.3541 10.809 6.98308 10.809C7.61207 10.809 8.21778 10.658 8.75913 10.3735V10.333C8.75911 9.56782 8.13657 8.94531 7.37136 8.94531Z" fill="#6C767D"/>
<path d="M13.434 10.7012C13.069 10.3362 12.5837 10.1352 12.0675 10.1352C11.6908 10.1352 11.3309 10.2427 11.0219 10.4424L9.96302 9.38353C10.5112 8.70576 10.8092 7.86775 10.8092 6.98384C10.8092 6.10138 10.5121 5.26471 9.9657 4.58752L11.0187 3.55564C11.3284 3.75665 11.6896 3.86482 12.0675 3.86482C12.5837 3.86482 13.069 3.66382 13.434 3.29883C13.799 2.93382 14 2.44855 14 1.93238C14 1.41621 13.799 0.930945 13.434 0.565961C13.069 0.201004 12.5837 0 12.0675 0C11.5513 0 11.066 0.201004 10.701 0.565988C10.336 0.930973 10.135 1.41624 10.135 1.93241C10.135 2.30781 10.2418 2.66659 10.4402 2.97492L9.38673 4.00731C8.70844 3.45773 7.86931 3.15891 6.98414 3.15891C6.1066 3.15891 5.27434 3.45264 4.59914 3.9932L3.5598 2.97486C3.75818 2.66656 3.86498 2.30779 3.86498 1.93241C3.86498 1.41624 3.66395 0.930973 3.29897 0.565988C2.54551 -0.187441 1.3195 -0.187441 0.566016 0.565988C-0.187441 1.31942 -0.187441 2.54537 0.566016 3.2988C0.931 3.66379 1.4163 3.86479 1.93249 3.86479C2.31046 3.86479 2.67162 3.75659 2.98137 3.55559L4.01663 4.56993C3.46114 5.25016 3.15908 6.09375 3.15908 6.98381C3.15908 7.87536 3.46213 8.72028 4.01939 9.40111L2.97817 10.4424C2.66913 10.2427 2.30918 10.1352 1.93252 10.1352C1.41632 10.1352 0.931027 10.3362 0.566043 10.7012C0.201004 11.0662 0 11.5514 0 12.0676C0 12.5838 0.201004 13.069 0.566016 13.434C0.931 13.799 1.4163 14 1.93249 14C2.44869 14 2.93396 13.799 3.29894 13.434C3.66395 13.069 3.86496 12.5838 3.86496 12.0676C3.86496 11.6909 3.75744 11.3309 3.55772 11.0219L4.39384 10.1857C4.44948 9.34443 4.97829 8.6307 5.71621 8.30878C5.52013 8.0459 5.40392 7.72012 5.40392 7.36769C5.40392 6.49791 6.11155 5.79031 6.98135 5.79031C7.85116 5.79031 8.55878 6.49791 8.55878 7.36769C8.55878 7.71928 8.44307 8.04431 8.24783 8.3069C8.97788 8.62356 9.50403 9.32345 9.57173 10.1514L10.4422 11.0219C10.2425 11.3309 10.135 11.6909 10.135 12.0676C10.135 12.5837 10.336 13.069 10.701 13.434C11.066 13.799 11.5513 14 12.0675 14C12.5837 14 13.069 13.799 13.434 13.434C13.799 13.069 14 12.5838 14 12.0676C14 11.5514 13.799 11.0662 13.434 10.7012Z" fill="#6C767D"/>
</svg>
