<svg width="14" height="14" viewBox="0 0 14 14" fill="none" xmlns="http://www.w3.org/2000/svg">
<g clip-path="url(#clip0)">
<path d="M13.0464 9.31078C12.3352 8.73927 11.6829 8.46143 11.052 8.46143C10.1394 8.46143 9.48234 9.04195 8.88744 9.63666C8.81903 9.70512 8.7362 9.73703 8.62681 9.73703C8.12551 9.73708 7.24362 9.10929 6.00563 7.87116C4.5492 6.41464 3.99854 5.48826 4.36881 5.11784C5.37258 4.11442 5.68593 3.10852 4.14911 1.19724C3.59894 0.512487 3.06066 0.179688 2.50353 0.179688C1.75217 0.179688 1.181 0.780286 0.67707 1.31023C0.589947 1.40184 0.507649 1.48837 0.426958 1.56907C-0.142603 2.13858 -0.142311 3.3808 0.427786 4.89219C1.05329 6.55049 2.2883 8.35443 3.90538 9.97175C5.15594 11.2222 6.51662 12.2328 7.84042 12.9113C8.99615 13.5037 10.1172 13.8211 10.997 13.8211C10.9971 13.8211 10.9972 13.8211 10.9974 13.8211C11.548 13.8211 11.9953 13.701 12.2906 13.4567C12.8906 12.9607 14.0075 12.0418 14 10.9503C13.9959 10.3649 13.6751 9.81631 13.0464 9.31078Z" fill="#6C767D"/>
</g>
<defs>
<clipPath id="clip0">
<rect width="14" height="14" fill="white"/>
</clipPath>
</defs>
</svg>
