<svg width="24" height="22" viewBox="0 0 24 22" fill="none" xmlns="http://www.w3.org/2000/svg">
<path d="M23.794 20.3465L12.7032 9.30258V7.48437H19.0312C19.3155 7.48437 19.5723 7.31342 19.6808 7.05041C19.79 6.78744 19.7295 6.48529 19.5283 6.28411L17.213 3.96875L19.5283 1.65339C19.7295 1.45221 19.79 1.1501 19.6808 0.887088C19.5723 0.624123 19.3155 0.453125 19.0312 0.453125H12.0001C11.6115 0.453125 11.297 0.767605 11.297 1.15624V9.30249L0.206267 20.3465C0.00508255 20.5476 -0.0553385 20.8498 0.0538319 21.1128C0.162299 21.3757 0.419124 21.5467 0.70337 21.5467H23.2968C23.5811 21.5467 23.8379 21.3758 23.9463 21.1128C24.0556 20.8498 23.9951 20.5476 23.794 20.3465ZM12.7032 1.85945H17.3339L15.7216 3.47169C15.447 3.74633 15.447 4.19131 15.7216 4.46595L17.3339 6.07819H12.7032V1.85945ZM12.0001 10.588L15.9276 14.5155L14.8126 15.6306L12.4972 13.3153C12.2226 13.0406 11.7776 13.0406 11.5029 13.3153L9.18758 15.6306L8.07249 14.5155L12.0001 10.588ZM2.40074 20.1404L7.07828 15.5098L8.69053 17.122C8.96516 17.3967 9.41014 17.3967 9.68478 17.122L12.0001 14.8067L14.3155 17.122C14.5901 17.3967 15.0351 17.3967 15.3097 17.122L16.922 15.5098L21.5995 20.1404H2.40074Z" fill="white"/>
</svg>
