<svg width="18" height="18" viewBox="0 0 18 18" fill="none" xmlns="http://www.w3.org/2000/svg">
<path d="M16.6228 0.428467C16.8832 0.428467 17.1064 0.521473 17.2924 0.707485C17.4784 0.893497 17.5714 1.11671 17.5714 1.37713V16.6227C17.5714 16.8831 17.4784 17.1063 17.2924 17.2923C17.1064 17.4783 16.8832 17.5713 16.6228 17.5713H12.2589V10.9307H14.4799L14.8147 8.34141H12.2589V6.68963C12.2589 6.27296 12.3464 5.96046 12.5212 5.75213C12.6961 5.54379 13.0365 5.43963 13.5424 5.43963L14.904 5.42847V3.1182C14.4353 3.05123 13.7731 3.01775 12.9174 3.01775C11.9055 3.01775 11.0964 3.31537 10.49 3.91061C9.88357 4.50585 9.58037 5.34662 9.58037 6.43293V8.34141H7.34823V10.9307H9.58037V17.5713H1.37725C1.11683 17.5713 0.893619 17.4783 0.707607 17.2923C0.521595 17.1063 0.428589 16.8831 0.428589 16.6227V1.37713C0.428589 1.11671 0.521595 0.893497 0.707607 0.707485C0.893619 0.521473 1.11683 0.428467 1.37725 0.428467H16.6228Z" fill="#D9DFE1"/>
</svg>
