<svg width="18" height="18" viewBox="0 0 18 18" fill="none" xmlns="http://www.w3.org/2000/svg">
<path d="M11.8572 8.9999C11.8572 8.2112 11.5781 7.53784 11.0201 6.97981C10.4621 6.42177 9.78871 6.14275 9.00002 6.14275C8.21133 6.14275 7.53796 6.42177 6.97993 6.97981C6.42189 7.53784 6.14287 8.2112 6.14287 8.9999C6.14287 9.78859 6.42189 10.4619 6.97993 11.02C7.53796 11.578 8.21133 11.857 9.00002 11.857C9.78871 11.857 10.4621 11.578 11.0201 11.02C11.5781 10.4619 11.8572 9.78859 11.8572 8.9999ZM13.3973 8.9999C13.3973 10.2201 12.9695 11.2581 12.1139 12.1137C11.2582 12.9694 10.2203 13.3972 9.00002 13.3972C7.77978 13.3972 6.74183 12.9694 5.88618 12.1137C5.03052 11.2581 4.6027 10.2201 4.6027 8.9999C4.6027 7.77966 5.03052 6.74171 5.88618 5.88606C6.74183 5.0304 7.77978 4.60257 9.00002 4.60257C10.2203 4.60257 11.2582 5.0304 12.1139 5.88606C12.9695 6.74171 13.3973 7.77966 13.3973 8.9999ZM14.6027 4.424C14.6027 4.70674 14.5022 4.94856 14.3014 5.14945C14.1005 5.35034 13.8586 5.45079 13.5759 5.45079C13.2932 5.45079 13.0514 5.35034 12.8505 5.14945C12.6496 4.94856 12.5491 4.70674 12.5491 4.424C12.5491 4.14126 12.6496 3.89945 12.8505 3.69856C13.0514 3.49766 13.2932 3.39722 13.5759 3.39722C13.8586 3.39722 14.1005 3.49766 14.3014 3.69856C14.5022 3.89945 14.6027 4.14126 14.6027 4.424ZM9.00002 1.96865C8.94793 1.96865 8.66334 1.96679 8.14622 1.96306C7.62911 1.95934 7.23662 1.95934 6.96877 1.96306C6.70091 1.96679 6.34191 1.97795 5.89176 1.99655C5.44161 2.01515 5.05842 2.05235 4.7422 2.10815C4.42598 2.16396 4.15999 2.23278 3.94421 2.31463C3.57219 2.46344 3.24481 2.67921 2.96207 2.96195C2.67933 3.24469 2.46356 3.57207 2.31475 3.94409C2.2329 4.15987 2.16408 4.42586 2.10828 4.74208C2.05247 5.0583 2.01527 5.44149 1.99667 5.89164C1.97807 6.34178 1.96691 6.70079 1.96319 6.96865C1.95947 7.2365 1.95947 7.62899 1.96319 8.1461C1.96691 8.66321 1.96877 8.94781 1.96877 8.9999C1.96877 9.05198 1.96691 9.33658 1.96319 9.85369C1.95947 10.3708 1.95947 10.7633 1.96319 11.0311C1.96691 11.299 1.97807 11.658 1.99667 12.1082C2.01527 12.5583 2.05247 12.9415 2.10828 13.2577C2.16408 13.5739 2.2329 13.8399 2.31475 14.0557C2.46356 14.4277 2.67933 14.7551 2.96207 15.0378C3.24481 15.3206 3.57219 15.5364 3.94421 15.6852C4.15999 15.767 4.42598 15.8358 4.7422 15.8916C5.05842 15.9474 5.44161 15.9846 5.89176 16.0032C6.34191 16.0218 6.70091 16.033 6.96877 16.0367C7.23662 16.0404 7.62911 16.0404 8.14622 16.0367C8.66334 16.033 8.94793 16.0311 9.00002 16.0311C9.0521 16.0311 9.3367 16.033 9.85381 16.0367C10.3709 16.0404 10.7634 16.0404 11.0313 16.0367C11.2991 16.033 11.6581 16.0218 12.1083 16.0032C12.5584 15.9846 12.9416 15.9474 13.2578 15.8916C13.574 15.8358 13.84 15.767 14.0558 15.6852C14.4278 15.5364 14.7552 15.3206 15.038 15.0378C15.3207 14.7551 15.5365 14.4277 15.6853 14.0557C15.7671 13.8399 15.836 13.5739 15.8918 13.2577C15.9476 12.9415 15.9848 12.5583 16.0034 12.1082C16.022 11.658 16.0331 11.299 16.0368 11.0311C16.0406 10.7633 16.0406 10.3708 16.0368 9.85369C16.0331 9.33658 16.0313 9.05198 16.0313 8.9999C16.0313 8.94781 16.0331 8.66321 16.0368 8.1461C16.0406 7.62899 16.0406 7.2365 16.0368 6.96865C16.0331 6.70079 16.022 6.34178 16.0034 5.89164C15.9848 5.44149 15.9476 5.0583 15.8918 4.74208C15.836 4.42586 15.7671 4.15987 15.6853 3.94409C15.5365 3.57207 15.3207 3.24469 15.038 2.96195C14.7552 2.67921 14.4278 2.46344 14.0558 2.31463C13.84 2.23278 13.574 2.16396 13.2578 2.10815C12.9416 2.05235 12.5584 2.01515 12.1083 1.99655C11.6581 1.97795 11.2991 1.96679 11.0313 1.96306C10.7634 1.95934 10.3709 1.95934 9.85381 1.96306C9.3367 1.96679 9.0521 1.96865 9.00002 1.96865ZM17.5714 8.9999C17.5714 10.7038 17.5528 11.8831 17.5156 12.5378C17.4412 14.0855 16.9799 15.2834 16.1317 16.1316C15.2835 16.9798 14.0856 17.4411 12.538 17.5155C11.8832 17.5527 10.7039 17.5713 9.00002 17.5713C7.29615 17.5713 6.11683 17.5527 5.46207 17.5155C3.91445 17.4411 2.71654 16.9798 1.86832 16.1316C1.02011 15.2834 0.558797 14.0855 0.484392 12.5378C0.44719 11.8831 0.428589 10.7038 0.428589 8.9999C0.428589 7.29603 0.44719 6.11671 0.484392 5.46195C0.558797 3.91433 1.02011 2.71641 1.86832 1.8682C2.71654 1.01998 3.91445 0.558675 5.46207 0.48427C6.11683 0.447068 7.29615 0.428467 9.00002 0.428467C10.7039 0.428467 11.8832 0.447068 12.538 0.48427C14.0856 0.558675 15.2835 1.01998 16.1317 1.8682C16.9799 2.71641 17.4412 3.91433 17.5156 5.46195C17.5528 6.11671 17.5714 7.29603 17.5714 8.9999Z" fill="#D9DFE1"/>
</svg>
