<svg width="18" height="18" viewBox="0 0 18 18" fill="none" xmlns="http://www.w3.org/2000/svg">
<path d="M3.07368 14.7811H5.6518V7.03561H3.07368V14.7811ZM5.81921 4.64722C5.81177 4.26031 5.67784 3.94037 5.41743 3.6874C5.15701 3.43442 4.81103 3.30793 4.37948 3.30793C3.94793 3.30793 3.59637 3.43442 3.32479 3.6874C3.05322 3.94037 2.91743 4.26031 2.91743 4.64722C2.91743 5.02668 3.0495 5.34476 3.31363 5.60146C3.57777 5.85815 3.92189 5.9865 4.346 5.9865H4.35716C4.79615 5.9865 5.14957 5.85815 5.41743 5.60146C5.68529 5.34476 5.81921 5.02668 5.81921 4.64722ZM12.3482 14.7811H14.9264V10.3392C14.9264 9.19335 14.6548 8.32653 14.1116 7.73873C13.5685 7.15094 12.8505 6.85704 11.9576 6.85704C10.9457 6.85704 10.1682 7.29231 9.62502 8.16284H9.64734V7.03561H7.06921C7.09154 7.52668 7.09154 10.1085 7.06921 14.7811H9.64734V10.4508C9.64734 10.168 9.67338 9.95972 9.72546 9.82579C9.83707 9.56537 10.0045 9.34402 10.2277 9.16173C10.4509 8.97943 10.7262 8.88829 11.0536 8.88829C11.9167 8.88829 12.3482 9.47237 12.3482 10.6405V14.7811ZM17.5714 3.64275V14.357C17.5714 15.2425 17.2571 15.9995 16.6284 16.6282C15.9996 17.257 15.2426 17.5713 14.3572 17.5713H3.64287C2.75746 17.5713 2.00039 17.257 1.37167 16.6282C0.742949 15.9995 0.428589 15.2425 0.428589 14.357V3.64275C0.428589 2.75734 0.742949 2.00027 1.37167 1.37155C2.00039 0.742827 2.75746 0.428467 3.64287 0.428467H14.3572C15.2426 0.428467 15.9996 0.742827 16.6284 1.37155C17.2571 2.00027 17.5714 2.75734 17.5714 3.64275Z" fill="#D9DFE1"/>
</svg>
