<svg width="12" height="14" viewBox="0 0 12 14" fill="none" xmlns="http://www.w3.org/2000/svg">
<path fill-rule="evenodd" clip-rule="evenodd" d="M11.4688 2.96076C11.6146 3.1062 11.7396 3.30359 11.8438 3.55291C11.9479 3.80224 12 4.03079 12 4.23856V13.2143C12 13.4221 11.9271 13.5987 11.7813 13.7442C11.6354 13.8896 11.4583 13.9623 11.25 13.9623H0.75C0.541667 13.9623 0.364583 13.8896 0.21875 13.7442C0.0729167 13.5987 0 13.4221 0 13.2143V0.747981C0 0.540209 0.0729167 0.363602 0.21875 0.218161C0.364583 0.0727204 0.541667 0 0.75 0H7.75C7.95833 0 8.1875 0.0519432 8.4375 0.155829C8.6875 0.259716 8.88542 0.384379 9.03125 0.52982L11.4688 2.96076ZM8.00017 1.05907V3.98866H10.9377C10.8856 3.83803 10.8283 3.73154 10.7658 3.66921L8.32048 1.23048C8.25798 1.16815 8.15121 1.11101 8.00017 1.05907ZM10.9998 4.98649V12.965H0.999828V0.997253H6.99983V4.23851C6.99983 4.44628 7.07275 4.62289 7.21858 4.76833C7.36441 4.91377 7.5415 4.98649 7.74983 4.98649H10.9998Z" fill="#051F2C"/>
</svg>
