<svg width="25" height="25" viewBox="0 0 25 25" fill="none" xmlns="http://www.w3.org/2000/svg">
<path d="M19.6913 11.3452H18.3837C17.0308 11.3452 15.9081 12.3479 15.7186 13.6492C15.343 13.45 14.9151 13.3367 14.4611 13.3367H13.1537C11.6824 13.3367 10.4835 14.5226 10.461 15.9886C10.092 15.7984 9.67407 15.6902 9.2311 15.6902H7.92368C6.45234 15.6902 5.25347 16.8761 5.23096 18.3421C4.86196 18.1519 4.44409 18.0438 4.00107 18.0438H2.69365C1.20835 18.0438 0 19.2521 0 20.7375V24.2676C0 24.6721 0.32793 25 0.732422 25H5.96235H11.1924H16.4223H16.4224H16.4224H21.6523C22.0568 25 22.3848 24.6721 22.3848 24.2676V14.0389C22.3848 12.5536 21.1765 11.3452 19.6913 11.3452ZM1.46484 20.7374C1.46484 20.0598 2.01606 19.5085 2.69365 19.5085H4.00112C4.67871 19.5085 5.22993 20.0598 5.22993 20.7374V23.5352H1.46484V20.7374ZM6.69478 20.7374V18.3838C6.69478 17.7063 7.24604 17.155 7.92368 17.155H9.23105C9.90869 17.155 10.46 17.7063 10.46 18.3838V23.5352H6.69478V20.7374ZM15.6899 23.5352H11.9249V18.3838V16.0303C11.9249 15.3527 12.4761 14.8015 13.1537 14.8015H14.4611C15.1387 14.8015 15.6899 15.3527 15.6899 16.0303V23.5352ZM20.92 23.5352H17.1549V14.0389C17.1549 13.3613 17.7061 12.8101 18.3837 12.8101H19.6913C20.3688 12.8101 20.92 13.3613 20.92 14.0389V23.5352Z" fill="white"/>
<path d="M24.0488 3.64087C23.9627 3.37573 23.7335 3.18247 23.4576 3.14243L20.8573 2.76465L19.6943 0.408252C19.5709 0.158252 19.3163 0 19.0375 0C18.7587 0 18.5041 0.158252 18.3807 0.408252L17.2178 2.76465L14.6175 3.14243C14.3416 3.18247 14.1124 3.37573 14.0262 3.64087C13.9401 3.90601 14.0119 4.19707 14.2115 4.3917L16.0931 6.22593L15.6489 8.81567C15.6018 9.09048 15.7148 9.36816 15.9403 9.53203C16.0679 9.62476 16.2191 9.67192 16.3709 9.67192C16.4875 9.67192 16.6045 9.64414 16.7116 9.58779L19.0375 8.36509L21.3635 9.58779C21.4706 9.64409 21.5877 9.67192 21.7042 9.67192H21.7064C22.1104 9.67129 22.4377 9.3436 22.4377 8.9395C22.4377 8.8833 22.4314 8.82852 22.4194 8.77583L21.982 6.22588L23.8636 4.39165C24.0632 4.19712 24.135 3.90605 24.0488 3.64087ZM20.6837 5.4458C20.5111 5.61406 20.4322 5.85649 20.473 6.09409L20.7315 7.60068L19.3783 6.88936C19.165 6.7772 18.91 6.7772 18.6967 6.88936L17.3436 7.60068L17.602 6.09409C17.6427 5.85649 17.564 5.61406 17.3913 5.4458L16.2967 4.37871L17.8094 4.15889C18.0481 4.12427 18.2543 3.97441 18.361 3.75825L19.0375 2.38735L19.7141 3.75825C19.8208 3.97441 20.027 4.12427 20.2656 4.15889L21.7783 4.37871L20.6837 5.4458Z" fill="white"/>
</svg>
