<svg width="40" height="40" viewBox="0 0 40 40" fill="none" xmlns="http://www.w3.org/2000/svg">
<path d="M25.4477 13.2619L22.4094 12.8205L21.0509 10.0673C20.8535 9.66727 20.4461 9.41406 20 9.41406C19.5539 9.41406 19.1466 9.66734 18.9491 10.0673L17.5903 12.8205L14.5523 13.2619C14.1109 13.326 13.7441 13.6352 13.6062 14.0595C13.4684 14.4837 13.5834 14.9494 13.9027 15.2607L16.1011 17.4036L15.5821 20.4294C15.5067 20.8691 15.6874 21.3134 16.0483 21.5755C16.2524 21.7238 16.4942 21.7994 16.7372 21.7994C16.9237 21.7994 17.1109 21.7549 17.2823 21.6648L20.0001 20.2363L22.7175 21.6648C22.8899 21.7555 23.0801 21.7996 23.2659 21.7995C23.9124 21.7986 24.4362 21.2743 24.4362 20.6276C24.4362 20.5376 24.4261 20.45 24.4069 20.3658L23.8988 17.4036L26.0973 15.2607C26.4166 14.9494 26.5316 14.4837 26.3937 14.0595C26.2559 13.6352 25.8891 13.326 25.4477 13.2619ZM21.8216 16.1554C21.5455 16.4246 21.4194 16.8125 21.4846 17.1927L21.7063 18.4855L20.5453 17.8752C20.204 17.6957 19.7961 17.6956 19.4548 17.8752L18.2936 18.4855L18.5153 17.1927C18.5805 16.8125 18.4544 16.4246 18.1783 16.1554L17.2391 15.2398L18.537 15.0512C18.9187 14.9958 19.2487 14.7561 19.4194 14.4102L19.9999 13.2339L20.5804 14.4102C20.7511 14.7561 21.081 14.9959 21.4627 15.0512L22.7609 15.2398L21.8216 16.1554Z" fill="white"/>
<path d="M36.3177 5.02086H35.9814C36.144 4.60562 36.2343 4.15445 36.2343 3.68227C36.2343 1.65187 34.5823 0 32.552 0H7.44789C5.41742 0 3.76555 1.6518 3.76555 3.68227C3.76555 4.15438 3.85586 4.60562 4.01852 5.02086H3.68227C1.65187 5.02086 0 6.67273 0 8.70312C0 13.7255 2.0907 18.4427 5.88687 21.9858C8.62148 24.538 12.0065 26.2587 15.6901 27.0132V30.125H13.7239C11.3473 30.125 9.41391 32.0584 9.41391 34.4348V38.8281C9.41391 39.4753 9.93859 40 10.5858 40H29.4141C30.0613 40 30.586 39.4753 30.586 38.8281V34.4349C30.586 32.0585 28.6526 30.1251 26.276 30.1251H24.3098V27.0133C27.9934 26.2587 31.3785 24.5381 34.1131 21.9858C37.9093 18.4427 40 13.7255 40 8.70312C40 6.67273 38.348 5.02086 36.3177 5.02086ZM20.0004 25.1041C20.0003 25.1041 20.0002 25.1041 20.0001 25.1041C16.7844 25.1041 14.0486 23.6045 12.0885 20.7675C9.96289 17.6909 8.77594 13.0738 8.63422 7.36453H31.3659C31.2241 13.0737 30.0371 17.6909 27.9116 20.7675C25.9515 23.6045 23.2159 25.1041 20.0004 25.1041ZM6.1093 3.68227C6.1093 2.94422 6.70977 2.34375 7.44789 2.34375H32.552C33.2901 2.34375 33.8906 2.94422 33.8906 3.68227C33.8906 4.42039 33.2902 5.02086 32.552 5.02086H7.44789C6.70977 5.02086 6.1093 4.42039 6.1093 3.68227ZM2.34375 8.70312C2.34375 7.96508 2.94414 7.36461 3.68227 7.36461H6.28969C6.43234 13.6322 7.73227 18.5857 10.1602 22.0998C10.25 22.2298 10.3418 22.357 10.4345 22.4825C5.56984 19.5586 2.34375 14.4745 2.34375 8.70312ZM28.2423 34.4348V37.6562H11.7577V34.4349C11.7577 33.3508 12.6398 32.4688 13.7239 32.4688H16.862H23.138H26.276C27.3602 32.4688 28.2423 33.3508 28.2423 34.4348ZM21.9661 30.125H18.0338V27.3589C18.6832 27.4179 19.3391 27.448 20 27.448H20.0001H20.0004C20.6611 27.448 21.3169 27.418 21.9661 27.3589V30.125ZM29.5655 22.4827C29.6581 22.357 29.7499 22.2299 29.8398 22.0998C32.2677 18.5858 33.5677 13.6323 33.7103 7.36469H36.3177C37.0558 7.36469 37.6563 7.96516 37.6563 8.7032C37.6563 14.4745 34.4301 19.5587 29.5655 22.4827Z" fill="white"/>
</svg>
