<svg width="55" height="64" viewBox="0 0 55 64" fill="none" xmlns="http://www.w3.org/2000/svg">
<path fill-rule="evenodd" clip-rule="evenodd" d="M54.2839 16.2857C53.8064 15.1429 53.2335 14.2381 52.5651 13.5714L41.3932 2.42857C40.7248 1.7619 39.8177 1.19048 38.6719 0.714286C37.526 0.238095 36.4757 0 35.5208 0H3.4375C2.48264 0 1.67101 0.333333 1.0026 1C0.334201 1.66667 0 2.47619 0 3.42857V60.5714C0 61.5238 0.334201 62.3333 1.0026 63C1.67101 63.6667 2.48264 64 3.4375 64H51.5625C52.5174 64 53.329 63.6667 53.9974 63C54.6658 62.3333 55 61.5238 55 60.5714V19.4286C55 18.4762 54.7613 17.4286 54.2839 16.2857ZM36.6667 18.2857V4.8571C37.3589 5.09519 37.8483 5.3571 38.1348 5.64281L49.3424 16.8214C49.6289 17.1071 49.8915 17.5952 50.1302 18.2857H36.6667ZM50.4167 59.4284V22.857H35.5208C34.566 22.857 33.7543 22.5237 33.0859 21.857C32.4175 21.1903 32.0833 20.3808 32.0833 19.4284V4.57129H4.58333V59.4284H50.4167ZM35.0195 40.2501C33.8021 39.5358 32.7995 38.8691 32.0117 38.2501C29.8394 36.4882 28.0968 33.6549 26.7839 29.7501C27.0703 28.1072 27.2374 25.8215 27.2852 22.893V21.8215C27.2852 21.7025 27.2732 21.6072 27.2493 21.5358C27.2971 21.4882 27.3448 21.393 27.3926 21.2501C27.6074 20.131 27.5 19.3215 27.0703 18.8215C26.7839 18.4644 26.3661 18.2858 25.8171 18.2858H25.0293C24.2893 18.2858 23.788 18.762 23.5254 19.7144C23.2151 20.9049 23.1375 22.4227 23.2926 24.268C23.4478 26.1132 23.8118 28.012 24.3848 29.9644C23.5254 32.9644 22.2841 36.0834 20.6608 39.3215C19.3479 41.9882 18.0707 44.3334 16.8294 46.3572C16.8294 46.3096 16.8056 46.262 16.7578 46.2144C16.543 45.8572 16.2684 45.7858 15.9342 46.0001C13.9052 47.0715 12.3296 48.2203 11.2077 49.4465C10.0857 50.6727 9.41732 51.762 9.20247 52.7144C9.10699 53.3334 9.1786 53.762 9.41732 54.0001C9.53668 54.0953 9.60829 54.1549 9.63216 54.1787L10.4915 54.6072C10.8019 54.7739 11.1361 54.8572 11.4941 54.8572C13.6187 54.8572 16.5072 51.7382 20.1595 45.5001C24.2415 44.0953 28.9204 43.1072 34.196 42.5358C35.6999 43.3215 37.2515 43.9525 38.8509 44.4287C40.4503 44.9049 41.8229 45.1429 42.9688 45.1429C44.5204 45.1429 45.3678 44.6906 45.5111 43.7858V43.7501L45.5827 43.6787C45.6066 43.6549 45.6185 43.631 45.6185 43.6072C45.9527 42.893 45.9288 42.2739 45.5469 41.7501C44.8307 40.5834 42.7181 40.0001 39.209 40.0001C37.8244 40.0001 36.428 40.0834 35.0195 40.2501ZM11.3867 52.9287C12.628 52.3572 14.2632 50.4763 16.2923 47.2858C15.0749 48.2382 14.0305 49.2382 13.1592 50.2858C12.2879 51.3334 11.697 52.2144 11.3867 52.9287ZM25.5664 24.7859C25.2561 22.643 25.2799 21.0716 25.638 20.0716V20.0001C25.6619 19.9763 25.6738 19.9525 25.6738 19.9287C25.9603 20.262 26.1155 20.6906 26.1393 21.2144C26.1393 21.2382 26.1513 21.2739 26.1751 21.3216C26.1751 21.3454 26.1871 21.3692 26.2109 21.393C26.1393 21.4882 26.0916 21.5835 26.0677 21.6787C25.9006 22.6311 25.8171 23.143 25.8171 23.2144C25.6738 24.0954 25.5903 24.6192 25.5664 24.7859ZM21.1979 43.6787C24.4206 42.393 27.8103 41.4287 31.3672 40.7859C31.3194 40.762 31.1643 40.6489 30.9017 40.4466C30.6391 40.2442 30.4481 40.0835 30.3288 39.9644C28.5145 38.3692 26.9987 36.2739 25.7812 33.6787C25.1367 35.7263 24.146 38.0716 22.8092 40.7144C22.0931 42.0478 21.556 43.0359 21.1979 43.6787ZM39.3164 42.25C42.0855 42.25 43.7565 42.5357 44.3294 43.1071C44.3772 43.1548 44.401 43.1905 44.401 43.2143C44.3056 43.2381 44.0907 43.25 43.7565 43.25C42.6107 43.25 41.1306 42.9167 39.3164 42.25Z" fill="#051F2C"/>
</svg>
