<svg width="25" height="25" viewBox="0 0 25 25" fill="none" xmlns="http://www.w3.org/2000/svg">
<path d="M12.5 25C19.4036 25 25 19.4036 25 12.5C25 5.59644 19.4036 0 12.5 0C5.59644 0 0 5.59644 0 12.5C0 19.4036 5.59644 25 12.5 25Z" fill="white"/>
<g clip-path="url(#clip0)">
<path fill-rule="evenodd" clip-rule="evenodd" d="M7.44827 11.9971C7.44827 11.4775 7.53452 10.9792 7.68865 10.512L4.9924 8.45312C4.4669 9.52 4.1709 10.7222 4.1709 11.9971C4.1709 13.271 4.46665 14.4724 4.99127 15.5386L7.68602 13.4757C7.5334 13.0106 7.44827 12.5142 7.44827 11.9971Z" fill="#EA4335"/>
<path fill-rule="evenodd" clip-rule="evenodd" d="M12.1821 7.27275C13.3109 7.27275 14.3306 7.67275 15.1317 8.32725L17.4622 6C16.0421 4.76363 14.2213 4 12.1821 4C9.01606 4 6.29506 5.8105 4.99219 8.456L7.68831 10.5149C8.30956 8.62912 10.0804 7.27275 12.1821 7.27275Z" fill="#EA4335"/>
<path fill-rule="evenodd" clip-rule="evenodd" d="M12.1821 16.7343C10.0806 16.7343 8.30969 15.3779 7.68844 13.4922L4.99219 15.5507C6.29506 18.1966 9.01606 20.0071 12.1821 20.0071C14.1361 20.0071 16.0017 19.3132 17.4018 18.0132L14.8426 16.0347C14.1204 16.4896 13.2111 16.7343 12.1821 16.7343Z" fill="#EA4335"/>
<path fill-rule="evenodd" clip-rule="evenodd" d="M19.8288 12.0014C19.8288 11.5286 19.7559 11.0195 19.6466 10.5469H12.1816V13.6378H16.4786C16.2638 14.6916 15.679 15.5018 14.8421 16.029L17.4014 18.0075C18.8721 16.6425 19.8288 14.609 19.8288 12.0014Z" fill="#EA4335"/>
</g>
<defs>
<clipPath id="clip0">
<rect width="16" height="16" fill="white" transform="translate(4 4)"/>
</clipPath>
</defs>
</svg>
