<svg width="21" height="25" viewBox="0 0 21 25" fill="none" xmlns="http://www.w3.org/2000/svg">
<path d="M19.875 23.3871H18.2621V3.62903C18.2621 3.18367 17.9011 2.82258 17.4557 2.82258H11.4073V0.806452C11.4073 0.361089 11.0462 0 10.6008 0H5.00609C4.56073 0 4.19964 0.361089 4.19964 0.806452V2.82258H3.5444C3.09904 2.82258 2.73795 3.18367 2.73795 3.62903V23.3871H1.12505C0.679691 23.3871 0.318604 23.7482 0.318604 24.1935C0.318604 24.6389 0.679691 25 1.12505 25H19.875C20.3204 25 20.6814 24.6389 20.6814 24.1935C20.6814 23.7482 20.3204 23.3871 19.875 23.3871ZM5.81254 1.6129H9.79438V2.82258H5.81254V1.6129ZM8.88713 23.3871V19.9597H12.1129V23.3871H8.88713ZM13.7258 23.3871V19.9597H14.0786C14.5241 19.9597 14.8851 19.5986 14.8851 19.1532C14.8851 18.7079 14.5241 18.3468 14.0786 18.3468C11.2735 18.3468 9.51959 18.3468 6.92141 18.3468C6.47605 18.3468 6.11496 18.7079 6.11496 19.1532C6.11496 19.5986 6.47605 19.9597 6.92141 19.9597H7.27423V23.3871H4.35085V4.43548H16.6492V23.3871H13.7258ZM9.34076 6.80444C9.34076 7.2498 8.97967 7.61089 8.53431 7.61089H7.62705C7.18169 7.61089 6.8206 7.2498 6.8206 6.80444C6.8206 6.35907 7.18169 5.99798 7.62705 5.99798H8.53431C8.97967 5.99798 9.34076 6.35907 9.34076 6.80444ZM14.129 6.80444C14.129 7.2498 13.768 7.61089 13.3226 7.61089H12.4153C11.9699 7.61089 11.6089 7.2498 11.6089 6.80444C11.6089 6.35907 11.9699 5.99798 12.4153 5.99798H13.3226C13.768 5.99798 14.129 6.35907 14.129 6.80444ZM9.34076 9.82863C9.34076 10.274 8.97967 10.6351 8.53431 10.6351H7.62705C7.18169 10.6351 6.8206 10.274 6.8206 9.82863C6.8206 9.38327 7.18169 9.02218 7.62705 9.02218H8.53431C8.97967 9.02218 9.34076 9.38327 9.34076 9.82863ZM14.129 9.82863C14.129 10.274 13.768 10.6351 13.3226 10.6351H12.4153C11.9699 10.6351 11.6089 10.274 11.6089 9.82863C11.6089 9.38327 11.9699 9.02218 12.4153 9.02218H13.3226C13.768 9.02218 14.129 9.38327 14.129 9.82863ZM9.34076 12.8528C9.34076 13.2982 8.97967 13.6593 8.53431 13.6593H7.62705C7.18169 13.6593 6.8206 13.2982 6.8206 12.8528C6.8206 12.4075 7.18169 12.0464 7.62705 12.0464H8.53431C8.97967 12.0464 9.34076 12.4075 9.34076 12.8528ZM14.129 12.8528C14.129 13.2982 13.768 13.6593 13.3226 13.6593H12.4153C11.9699 13.6593 11.6089 13.2982 11.6089 12.8528C11.6089 12.4075 11.9699 12.0464 12.4153 12.0464H13.3226C13.768 12.0464 14.129 12.4075 14.129 12.8528ZM9.34076 15.877C9.34076 16.3224 8.97967 16.6835 8.53431 16.6835H7.62705C7.18169 16.6835 6.8206 16.3224 6.8206 15.877C6.8206 15.4317 7.18169 15.0706 7.62705 15.0706H8.53431C8.97967 15.0706 9.34076 15.4317 9.34076 15.877ZM14.129 15.877C14.129 16.3224 13.768 16.6835 13.3226 16.6835H12.4153C11.9699 16.6835 11.6089 16.3224 11.6089 15.877C11.6089 15.4317 11.9699 15.0706 12.4153 15.0706H13.3226C13.768 15.0706 14.129 15.4317 14.129 15.877Z" fill="white"/>
</svg>
