<svg width="32" height="40" viewBox="0 0 32 40" fill="none" xmlns="http://www.w3.org/2000/svg">
<path d="M16.0003 0C7.30514 0 0.231079 7.07398 0.231079 15.7692C0.231079 21.1882 2.97889 25.9772 7.15413 28.817V38.8461C7.15413 39.2377 7.35264 39.6025 7.68147 39.815C8.01014 40.0276 8.42436 40.0588 8.78147 39.8983L16.0003 36.6499L23.2191 39.8984C23.3703 39.9663 23.5316 40 23.6925 40C23.9115 40 24.1295 39.9377 24.3191 39.8151C24.6479 39.6025 24.8465 39.2377 24.8465 38.8462V28.817C29.0217 25.9773 31.7695 21.1883 31.7695 15.7693C31.7695 7.07398 24.6955 0 16.0003 0ZM22.5387 37.0617L16.4737 34.3325C16.3232 34.2647 16.1617 34.2308 16.0003 34.2308C15.8389 34.2308 15.6774 34.2646 15.5269 34.3324L9.46186 37.0616V30.1214C10.0418 30.3858 10.637 30.613 11.2435 30.8046C11.2779 30.8155 11.3122 30.8267 11.3467 30.8373C11.4241 30.8612 11.5018 30.8841 11.5795 30.9067C11.6371 30.9236 11.6947 30.9403 11.7524 30.9566C11.8151 30.9741 11.8781 30.991 11.9411 31.0077C12.0145 31.0273 12.0881 31.0465 12.1619 31.0651C12.2141 31.0781 12.2664 31.0909 12.3187 31.1034C12.4037 31.1237 12.4888 31.1434 12.5743 31.1624C12.6186 31.1723 12.663 31.182 12.7073 31.1915C12.8009 31.2115 12.8948 31.2304 12.9891 31.2488C13.0275 31.2562 13.0658 31.2638 13.1043 31.2709C13.2041 31.2895 13.3044 31.307 13.4048 31.3237C13.4393 31.3295 13.4737 31.3354 13.5083 31.3409C13.6119 31.3574 13.7161 31.3727 13.8205 31.3871C13.8529 31.3916 13.8851 31.3964 13.9175 31.4007C14.0232 31.4147 14.1294 31.4273 14.2356 31.4391C14.2673 31.4427 14.2989 31.4466 14.3306 31.4501C14.4366 31.4613 14.543 31.4709 14.6497 31.48C14.682 31.4827 14.7142 31.4861 14.7466 31.4886C14.8517 31.4969 14.9572 31.5035 15.063 31.5098C15.0969 31.5118 15.1306 31.5145 15.1647 31.5162C15.2715 31.5219 15.3787 31.5257 15.486 31.5291C15.5183 31.5302 15.5505 31.532 15.5828 31.5328C15.7215 31.5364 15.8608 31.5384 16.0005 31.5384C16.1401 31.5384 16.2793 31.5364 16.418 31.5328C16.4504 31.532 16.4825 31.5302 16.5148 31.5291C16.6222 31.5257 16.7294 31.5218 16.8362 31.5162C16.8701 31.5145 16.9039 31.5118 16.9379 31.5098C17.0436 31.5035 17.1491 31.497 17.2542 31.4886C17.2866 31.4861 17.3188 31.4827 17.3512 31.48C17.4578 31.4709 17.5642 31.4613 17.6702 31.4501C17.7019 31.4467 17.7335 31.4427 17.7652 31.4391C17.8715 31.4272 17.9776 31.4147 18.0833 31.4007C18.1158 31.3964 18.148 31.3916 18.1803 31.3871C18.2847 31.3727 18.3888 31.3574 18.4926 31.3409C18.5271 31.3353 18.5615 31.3294 18.596 31.3237C18.6965 31.307 18.7967 31.2895 18.8965 31.2709C18.935 31.2638 18.9733 31.2563 19.0117 31.2488C19.1059 31.2305 19.1998 31.2114 19.2935 31.1915C19.338 31.182 19.3822 31.1723 19.4265 31.1624C19.512 31.1434 19.5972 31.1237 19.6821 31.1034C19.7344 31.0909 19.7866 31.078 19.8389 31.0651C19.9127 31.0466 19.9862 31.0274 20.0597 31.0077C20.1227 30.9909 20.1857 30.9741 20.2484 30.9566C20.3062 30.9403 20.3638 30.9236 20.4213 30.9067C20.499 30.8841 20.5768 30.8612 20.6541 30.8373C20.6887 30.8266 20.723 30.8155 20.7573 30.8046C21.3638 30.613 21.959 30.3859 22.539 30.1215V37.0617H22.5387ZM20.3932 28.4941C20.3472 28.5099 20.3012 28.5259 20.255 28.5413C20.1848 28.5647 20.1144 28.5877 20.0437 28.61C19.9614 28.6359 19.8789 28.6608 19.7962 28.685C19.7378 28.7022 19.6794 28.7193 19.6207 28.7357C19.5112 28.7662 19.4014 28.7955 19.2912 28.8232C19.2501 28.8336 19.2088 28.8434 19.1676 28.8534C19.0597 28.8795 18.9514 28.9044 18.8428 28.9278C18.8155 28.9338 18.7883 28.94 18.761 28.9456C18.6208 28.9749 18.4802 29.0022 18.339 29.027C18.3247 29.0295 18.3102 29.0316 18.2958 29.0342C18.1686 29.0562 18.041 29.0761 17.9132 29.0943C17.8844 29.0984 17.8555 29.1025 17.8265 29.1065C17.6902 29.125 17.5537 29.142 17.4166 29.1564C17.4115 29.157 17.4063 29.1577 17.4012 29.1582C17.2577 29.1731 17.1137 29.1854 16.9696 29.1956C16.9383 29.1979 16.9069 29.1995 16.8756 29.2016C16.7635 29.2089 16.6514 29.2146 16.539 29.2191C16.5008 29.2207 16.4626 29.2223 16.4244 29.2235C16.2832 29.2278 16.1419 29.2308 16.0003 29.2308C15.8587 29.2308 15.7174 29.2279 15.5762 29.2234C15.538 29.2222 15.4997 29.2205 15.4616 29.219C15.3492 29.2145 15.2371 29.2087 15.125 29.2015C15.0937 29.1995 15.0623 29.1977 15.031 29.1955C14.8869 29.1852 14.743 29.1729 14.5994 29.158C14.5943 29.1575 14.5891 29.1568 14.584 29.1562C14.4469 29.1419 14.3104 29.1248 14.174 29.1063C14.1452 29.1024 14.1164 29.0984 14.0875 29.0941C13.9596 29.0759 13.832 29.056 13.7048 29.0341C13.6905 29.0316 13.676 29.0294 13.6615 29.0268C13.5204 29.002 13.3797 28.9747 13.2396 28.9455C13.2123 28.9398 13.1851 28.9334 13.1578 28.9277C13.0492 28.9043 12.9408 28.8794 12.833 28.8533C12.7917 28.8433 12.7505 28.8334 12.7094 28.823C12.5992 28.7954 12.4894 28.766 12.3799 28.7355C12.3212 28.7191 12.2628 28.702 12.2044 28.6848C12.1218 28.6605 12.0392 28.6357 11.9569 28.6098C11.8862 28.5875 11.8158 28.5645 11.7455 28.5411C11.6993 28.5257 11.6533 28.5098 11.6073 28.4939C6.33514 26.6688 2.53874 21.6543 2.53874 15.7692C2.53874 8.34656 8.57756 2.30766 16.0003 2.30766C23.423 2.30766 29.4619 8.34648 29.4619 15.7692C29.4619 21.6543 25.6654 26.6688 20.3932 28.4941Z" fill="white"/>
<path d="M22.8459 15.7673L25.0131 11.6939C25.2002 11.3426 25.1927 10.9197 24.9938 10.5751C24.7948 10.2305 24.4322 10.0126 24.0345 9.99883L19.4231 9.83906L16.9791 5.92547C16.7682 5.58797 16.3984 5.38281 16.0004 5.38281C15.6024 5.38281 15.2326 5.58797 15.0217 5.92547L12.5777 9.83906L7.96639 9.99883C7.56866 10.0126 7.20608 10.2305 7.0071 10.5751C6.80811 10.9197 6.80069 11.3426 6.98772 11.6939L9.15499 15.7673L6.98772 19.8408C6.80069 20.1921 6.80811 20.615 7.0071 20.9596C7.20608 21.3042 7.56866 21.5221 7.96639 21.5359L12.5777 21.6956L15.0217 25.6092C15.2325 25.9467 15.6024 26.1519 16.0004 26.1519C16.3984 26.1519 16.7682 25.9467 16.9791 25.6092L19.4231 21.6956L24.0344 21.5359C24.4321 21.5221 24.7947 21.3042 24.9937 20.9596C25.1927 20.615 25.2001 20.1921 25.0131 19.8408L22.8459 15.7673ZM18.7297 19.4105C18.3462 19.4238 17.9942 19.627 17.791 19.9526L16.0004 22.8198L14.2098 19.9527C14.0066 19.6271 13.6547 19.424 13.2712 19.4106L9.89288 19.2935L11.4806 16.3093C11.6609 15.9705 11.6609 15.5642 11.4806 15.2254L9.89288 12.2412L13.2712 12.1241C13.6547 12.1108 14.0066 11.9076 14.2098 11.582L16.0004 8.71492L17.7909 11.5821C17.9942 11.9077 18.3461 12.1108 18.7296 12.1241L22.1079 12.2413L20.5202 15.2255C20.3399 15.5643 20.3399 15.9706 20.5202 16.3094L22.108 19.2936L18.7297 19.4105Z" fill="white"/>
</svg>
