<svg width="25" height="25" viewBox="0 0 25 25" fill="none" xmlns="http://www.w3.org/2000/svg">
<path d="M12.5 24.999C19.4036 24.999 25 19.4026 25 12.499C25 5.59546 19.4036 -0.000976562 12.5 -0.000976562C5.59644 -0.000976562 0 5.59546 0 12.499C0 19.4026 5.59644 24.999 12.5 24.999Z" fill="white"/>
<path d="M19.9685 13.5055V18.659H16.9807V13.8509C16.9807 12.6437 16.5493 11.8192 15.4675 11.8192C14.6419 11.8192 14.1515 12.3743 13.9349 12.9117C13.8562 13.1038 13.836 13.3705 13.836 13.6399V18.6588H10.8479C10.8479 18.6588 10.888 10.5155 10.8479 9.67253H13.8362V10.946C13.8302 10.956 13.8217 10.9658 13.8163 10.9754H13.8362V10.946C14.2333 10.335 14.9414 9.46151 16.529 9.46151C18.4948 9.46151 19.9685 10.7459 19.9685 13.5055ZM7.7221 5.34082C6.70001 5.34082 6.03131 6.01174 6.03131 6.89324C6.03131 7.75601 6.68062 8.44632 7.68288 8.44632H7.70227C8.74442 8.44632 9.39239 7.75601 9.39239 6.89324C9.37256 6.01174 8.74442 5.34082 7.7221 5.34082ZM6.2089 18.659H9.19586V9.67253H6.2089V18.659Z" fill="#007AB9"/>
</svg>
