<svg width="60" height="60" viewBox="0 0 60 60" fill="none" xmlns="http://www.w3.org/2000/svg">
<g clip-path="url(#clip0)">
<path d="M37.4999 25.3327V20.5C37.4999 16.3655 34.1363 13 30 13C25.8645 13 22.5 16.3655 22.5 20.5V25.3327H26.2501V20.5C26.2499 18.4308 27.9317 16.7499 30 16.7499C32.0673 16.7499 33.75 18.4309 33.75 20.5V25.3327H37.4999Z" fill="#051F2C"/>
<path d="M18.75 29.8749V39.25C18.75 41.3209 20.4291 43 22.5001 43H37.5001C39.5709 43 41.25 41.3209 41.25 39.25V29.8749C41.25 27.8039 39.5709 26.1248 37.5 26.1248H22.5001C20.4291 26.125 18.75 27.8039 18.75 29.8749ZM30 31.75C31.0355 31.75 31.875 32.5886 31.875 33.6249C31.875 34.3115 31.4877 34.8865 30.9374 35.2125V38.3124C30.9374 38.8307 30.5181 39.2499 29.9999 39.2499C29.4816 39.2499 29.0624 38.8306 29.0624 38.3124V35.2125C28.5121 34.8865 28.1248 34.3115 28.1248 33.6249C28.1251 32.5885 28.9645 31.75 30 31.75Z" fill="#051F2C"/>
</g>
<circle cx="30" cy="30" r="28.5" stroke="#474D54" stroke-width="3"/>
<defs>
<clipPath id="clip0">
<rect width="30" height="30" fill="white" transform="translate(15 13)"/>
</clipPath>
</defs>
</svg>
