<svg width="163" height="101" viewBox="0 0 163 101" fill="none" xmlns="http://www.w3.org/2000/svg">
<path d="M1.5197 71.1124C2.54917 70.0818 3.77474 69.591 5.19639 69.591C6.66707 69.591 7.89263 70.0818 8.87308 71.1124C9.90256 72.143 10.3928 73.3699 10.3928 74.7932C10.3928 79.1119 11.9615 82.8418 15.0499 85.9336C18.1383 89.0254 21.8641 90.5959 26.178 90.5959C30.492 90.5959 34.1687 89.0254 37.2571 85.9336C40.3456 82.8418 41.9143 79.1119 41.9143 74.7932V27.2378C41.9143 25.7655 42.4045 24.5386 43.434 23.557C44.4635 22.5264 45.689 22.0356 47.1107 22.0356C48.5323 22.0356 49.7579 22.5264 50.7874 23.557C51.8168 24.5386 52.3071 25.7655 52.3071 27.2378V74.7932C52.3071 82.0075 49.7579 88.1911 44.6595 93.3442C39.5122 98.4482 33.3844 101 26.178 101C18.9717 101 12.7949 98.4482 7.64752 93.3442C2.54917 88.1911 0 82.0075 0 74.7932C0 73.3699 0.490225 72.143 1.5197 71.1124Z" fill="white"/>
<path d="M79.0734 95.798C79.0734 97.2703 78.5832 98.4972 77.5537 99.5278C76.5733 100.509 75.3477 101 73.8771 101C72.4554 101 71.2298 100.509 70.2004 99.5278C69.1709 98.4972 68.6807 97.2703 68.6807 95.798V28.1211C68.6807 26.6979 69.1709 25.4709 70.2004 24.4403C71.2298 23.4097 72.4554 22.9189 73.8771 22.9189C75.3477 22.9189 76.5733 23.4097 77.5537 24.4403C78.5832 25.4709 79.0734 26.6979 79.0734 28.1211V95.798Z" fill="white"/>
<path d="M103.143 95.798C103.143 97.2703 102.653 98.4972 101.624 99.5278C100.643 100.509 99.4176 101 97.9469 101C96.5252 101 95.2997 100.509 94.2702 99.5278C93.2407 98.4972 92.7505 97.2703 92.7505 95.798V91.9209C92.7505 82.2528 96.1821 73.9588 103.094 67.088C105.006 65.1741 107.163 63.4564 109.565 61.9841C107.212 60.5118 105.055 58.7941 103.094 56.831C96.2311 49.9603 92.7505 41.7154 92.7505 32.0472V28.1211C92.7505 26.6979 93.2407 25.4709 94.2702 24.4403C95.2997 23.4097 96.5252 22.9189 97.9469 22.9189C99.4176 22.9189 100.643 23.4097 101.624 24.4403C102.653 25.4709 103.143 26.6979 103.143 28.1211V32.0472C103.143 38.8198 105.545 44.66 110.399 49.5186C115.252 54.3772 121.037 56.7819 127.851 56.7819C134.665 56.7819 140.498 54.3772 145.303 49.5186C150.156 44.66 152.558 38.8689 152.558 32.0472V28.1211C152.558 26.6979 153.048 25.4709 154.078 24.4403C155.107 23.4097 156.333 22.9189 157.754 22.9189C159.225 22.9189 160.451 23.4097 161.48 24.4403C162.51 25.4709 163 26.6979 163 28.1211V32.0472C163 41.7154 159.568 49.9603 152.656 56.831C150.695 58.7941 148.538 60.5118 146.185 61.9841C148.538 63.4564 150.646 65.125 152.656 67.088C159.519 73.9588 163 82.2528 163 91.9209V95.798C163 97.2703 162.51 98.4972 161.48 99.5278C160.451 100.509 159.225 101 157.754 101C156.333 101 155.107 100.509 154.078 99.5278C153.048 98.4972 152.558 97.2703 152.558 95.798V91.9209C152.558 85.1483 150.156 79.3082 145.303 74.4496C140.498 69.591 134.665 67.1862 127.851 67.1862C121.086 67.1862 115.252 69.591 110.399 74.4496C105.545 79.3082 103.143 85.0992 103.143 91.9209V95.798Z" fill="white"/>
<path d="M34.2177 70.867C34.2177 75.4311 30.541 79.1119 25.9819 79.1119C21.4228 79.1119 17.7461 75.4311 17.7461 70.867C17.7461 66.3028 21.4228 62.6221 25.9819 62.6221C30.541 62.6221 34.2177 66.3028 34.2177 70.867Z" fill="white"/>
<path d="M81.6227 8.2449C81.6227 12.809 77.946 16.4898 73.3869 16.4898C68.8278 16.4898 65.1511 12.809 65.1511 8.2449C65.1511 3.68076 68.8278 0 73.3869 0C77.946 0 81.6227 3.68076 81.6227 8.2449Z" fill="white"/>
<path d="M135.351 36.7093C135.351 41.2734 131.675 44.9541 127.115 44.9541C122.556 44.9541 118.88 41.2734 118.88 36.7093C118.88 32.1451 122.556 28.4644 127.115 28.4644C131.675 28.5134 135.351 32.1942 135.351 36.7093Z" fill="white"/>
</svg>
