<svg width="40" height="40" viewBox="0 0 40 40" fill="none" xmlns="http://www.w3.org/2000/svg">
<path d="M36.4844 16.4062H3.59375C1.65109 16.4062 0 17.9763 0 19.9219V36.4844C0 37.4288 0.38625 38.3183 1.08766 38.9888C1.76977 39.6409 2.65984 40 3.59375 40H36.4844C38.4229 40 40 38.4229 40 36.4844V19.9219C40 17.9834 38.4229 16.4062 36.4844 16.4062ZM37.6562 36.4844C37.6562 37.1305 37.1305 37.6562 36.4844 37.6562H3.59375C2.92789 37.6562 2.34375 37.1087 2.34375 36.4844V19.9219C2.34375 19.2976 2.92789 18.75 3.59375 18.75H36.4844C37.1305 18.75 37.6562 19.2757 37.6562 19.9219V36.4844Z" fill="white"/>
<path d="M34.0625 21.0938H5.9375C5.29031 21.0938 4.76562 21.6184 4.76562 22.2656V34.1406C4.76562 34.7878 5.29031 35.3125 5.9375 35.3125H34.0625C34.7097 35.3125 35.2344 34.7878 35.2344 34.1406V22.2656C35.2344 21.6184 34.7097 21.0938 34.0625 21.0938ZM14.1406 32.9688H7.10938V23.4375H14.1406V32.9688ZM23.5156 32.9688H16.4844V23.4375H23.5156V32.9688ZM32.8906 32.9688H25.8594V23.4375H32.8906V32.9688Z" fill="white"/>
<path d="M11.5493 7.46672C11.4251 7.08437 11.1136 6.7925 10.724 6.69328L8.30239 6.07641L6.96739 3.96383C6.75263 3.62398 6.37872 3.41797 5.97669 3.41797C5.57466 3.41797 5.20075 3.62398 4.98599 3.96383L3.65333 6.07266L1.15841 6.69141C0.762942 6.78945 0.446848 7.08594 0.323567 7.4743C0.200286 7.86266 0.287552 8.28711 0.554036 8.59539L2.20099 10.4999L1.9763 12.9631C1.93943 13.3669 2.11396 13.761 2.43763 14.0052C2.75568 14.2451 3.18169 14.3113 3.56638 14.1624L5.9706 13.2316L8.29841 14.1583C8.67208 14.307 9.09552 14.2537 9.42075 14.0176C9.74591 13.7813 9.92732 13.3948 9.9013 12.9937L9.73966 10.4999L11.3362 8.57742C11.5932 8.26828 11.6735 7.84898 11.5493 7.46672ZM7.63857 9.36156C7.44716 9.59203 7.35122 9.88711 7.3706 10.1861L7.44255 11.2949L6.41013 10.8839C6.14161 10.777 5.83568 10.7706 5.55349 10.8798L4.48185 11.2948L4.58021 10.2168C4.60919 9.89977 4.50786 9.58461 4.29966 9.34383L3.57575 8.5068L4.67443 8.23438C4.96771 8.16164 5.22161 7.97844 5.38302 7.72297L5.97669 6.78352L6.57029 7.72281C6.73036 7.97609 6.98138 8.15844 7.27177 8.23234L8.34857 8.50664L7.63857 9.36156Z" fill="white"/>
<path d="M26.7266 4.85844C26.5923 4.445 26.2402 4.14 25.8119 4.06586L22.598 3.50977L21.0759 0.625C20.8731 0.240547 20.4742 0 20.0395 0C19.6048 0 19.2059 0.240625 19.003 0.625L17.4809 3.50977L14.267 4.06586C13.8387 4.14 13.4866 4.44508 13.3523 4.85844C13.218 5.27187 13.3235 5.72563 13.6265 6.03734L15.8998 8.37625L15.4355 11.6047C15.3736 12.0349 15.5549 12.4641 15.9066 12.7196C16.2583 12.9752 16.7223 13.015 17.1126 12.8232L20.0395 11.384L22.9665 12.8232C23.3554 13.0144 23.8199 12.9759 24.1724 12.7196C24.5242 12.4641 24.7055 12.0349 24.6436 11.6047L24.1793 8.37625L26.4526 6.03734C26.7554 5.7257 26.8609 5.27187 26.7266 4.85844ZM22.0968 7.15602C21.8436 7.41656 21.7255 7.77992 21.7772 8.13961L22.0074 9.73984L20.5566 9.02648C20.2304 8.86617 19.8484 8.86617 19.5224 9.02648L18.0716 9.73984L18.3017 8.13961C18.3534 7.77992 18.2353 7.41664 17.9821 7.15602L16.8552 5.99664L18.4484 5.72102C18.8064 5.65906 19.1155 5.43453 19.285 5.11312L20.0395 3.6832L20.7939 5.11312C20.9634 5.43453 21.2725 5.65906 21.6306 5.72102L23.2237 5.99664L22.0968 7.15602Z" fill="white"/>
<path d="M39.7519 7.4666C39.6277 7.08426 39.3162 6.79238 38.9267 6.69316L36.4906 6.07262L35.0778 3.94215C34.8582 3.6109 34.4895 3.4148 34.0883 3.41801C33.6909 3.42238 33.3228 3.62785 33.1105 3.96379L31.7755 6.07637L29.3538 6.69324C28.9643 6.79246 28.6527 7.08441 28.5286 7.46668C28.4045 7.84894 28.4847 8.26824 28.7417 8.57754L30.3382 10.5L30.1766 12.9938C30.1506 13.395 30.332 13.7814 30.6571 14.0177C30.9823 14.2539 31.4056 14.3071 31.7795 14.1584L34.1073 13.2317L36.5115 14.1625C36.8876 14.3081 37.3081 14.2493 37.6279 14.0145C37.9504 13.7779 38.1299 13.393 38.1041 12.9939L37.9424 10.5001L39.539 8.57762C39.7958 8.26816 39.8761 7.84887 39.7519 7.4666ZM35.8412 9.36145C35.6498 9.59191 35.5538 9.88699 35.5732 10.186L35.6464 11.3142L34.5243 10.8797C34.3881 10.827 34.2447 10.8007 34.1012 10.8007C33.954 10.8007 33.8068 10.8284 33.6677 10.8838L32.6352 11.2948L32.7072 10.186C32.7266 9.88699 32.6307 9.59191 32.4392 9.36145L31.7293 8.5066L32.8061 8.2323C33.0965 8.1584 33.3475 7.97598 33.5076 7.72277L34.1248 6.74598L34.7869 7.74434C34.9476 7.98668 35.1925 8.16059 35.4743 8.2323L36.5511 8.5066L35.8412 9.36145Z" fill="white"/>
<path d="M10.625 25.7812C9.97781 25.7812 9.45312 26.3059 9.45312 26.9531V29.4531C9.45312 30.1003 9.97781 30.625 10.625 30.625C11.2722 30.625 11.7969 30.1003 11.7969 29.4531V26.9531C11.7969 26.3059 11.2722 25.7812 10.625 25.7812Z" fill="white"/>
<path d="M20 25.7812C19.3528 25.7812 18.8281 26.3059 18.8281 26.9531V29.4531C18.8281 30.1003 19.3528 30.625 20 30.625C20.6472 30.625 21.1719 30.1003 21.1719 29.4531V26.9531C21.1719 26.3059 20.6472 25.7812 20 25.7812Z" fill="white"/>
<path d="M29.375 25.7812C28.7278 25.7812 28.2031 26.3059 28.2031 26.9531V29.4531C28.2031 30.1003 28.7278 30.625 29.375 30.625C30.0222 30.625 30.5469 30.1003 30.5469 29.4531V26.9531C30.5469 26.3059 30.0222 25.7812 29.375 25.7812Z" fill="white"/>
</svg>
