 <svg width="20" height="20" viewBox="0 0 20 20" fill="none" xmlns="http://www.w3.org/2000/svg">
<path d="M18.2422 8.20312H1.79688C0.825547 8.20312 0 8.98813 0 9.96094V18.2422C0 18.7144 0.193125 19.1591 0.543828 19.4944C0.884883 19.8204 1.32992 20 1.79688 20H18.2422C19.2114 20 20 19.2114 20 18.2422V9.96094C20 8.99168 19.2114 8.20312 18.2422 8.20312ZM18.8281 18.2422C18.8281 18.5653 18.5653 18.8281 18.2422 18.8281H1.79688C1.46395 18.8281 1.17188 18.5543 1.17188 18.2422V9.96094C1.17188 9.64879 1.46395 9.375 1.79688 9.375H18.2422C18.5653 9.375 18.8281 9.63785 18.8281 9.96094V18.2422Z" fill="#052D41"/>
<path d="M17.0312 10.5469H2.96875C2.64516 10.5469 2.38281 10.8092 2.38281 11.1328V17.0703C2.38281 17.3939 2.64516 17.6562 2.96875 17.6562H17.0312C17.3548 17.6562 17.6172 17.3939 17.6172 17.0703V11.1328C17.6172 10.8092 17.3548 10.5469 17.0312 10.5469ZM7.07031 16.4844H3.55469V11.7188H7.07031V16.4844ZM11.7578 16.4844H8.24219V11.7188H11.7578V16.4844ZM16.4453 16.4844H12.9297V11.7188H16.4453V16.4844Z" fill="#052D41"/>
<path d="M5.77467 3.73336C5.71256 3.54219 5.55681 3.39625 5.36205 3.34664L4.15123 3.0382L3.48373 1.98191C3.37634 1.81199 3.18939 1.70898 2.98838 1.70898C2.78736 1.70898 2.60041 1.81199 2.49302 1.98191L1.8267 3.03633L0.579236 3.3457C0.381502 3.39473 0.223455 3.54297 0.161814 3.73715C0.100174 3.93133 0.143806 4.14355 0.277049 4.2977L1.10052 5.24996L0.988181 6.48156C0.969744 6.68344 1.05701 6.88051 1.21885 7.00258C1.37787 7.12254 1.59088 7.15563 1.78322 7.08121L2.98533 6.61578L4.14924 7.07914C4.33607 7.15352 4.54779 7.12687 4.71041 7.00879C4.87299 6.89066 4.96369 6.69742 4.95068 6.49684L4.86986 5.24996L5.66814 4.28871C5.79662 4.13414 5.83677 3.92449 5.77467 3.73336ZM3.81931 4.68078C3.72361 4.79602 3.67564 4.94355 3.68533 5.09305L3.72131 5.64746L3.20509 5.44195C3.07084 5.38852 2.91787 5.38531 2.77677 5.43992L2.24095 5.64738L2.29013 5.1084C2.30463 4.94988 2.25396 4.7923 2.14986 4.67191L1.78791 4.2534L2.33724 4.11719C2.48388 4.08082 2.61084 3.98922 2.69154 3.86148L2.98838 3.39176L3.28517 3.86141C3.36521 3.98805 3.49072 4.07922 3.63592 4.11617L4.17431 4.25332L3.81931 4.68078Z" fill="#052D41"/>
<path d="M13.3633 2.42922C13.2961 2.2225 13.1201 2.07 12.9059 2.03293L11.299 1.75488L10.5379 0.3125C10.4365 0.120273 10.237 0 10.0197 0C9.80236 0 9.6029 0.120312 9.50146 0.3125L8.74044 1.75488L7.13348 2.03293C6.91934 2.07 6.74329 2.22254 6.67614 2.42922C6.60895 2.63594 6.66172 2.86281 6.81321 3.01867L7.94985 4.18813L7.7177 5.80234C7.68677 6.01746 7.77743 6.23203 7.95329 6.35981C8.12911 6.48758 8.36114 6.5075 8.55626 6.4116L10.0197 5.69199L11.4832 6.4116C11.6777 6.50719 11.9099 6.48793 12.0862 6.35981C12.262 6.23203 12.3527 6.01746 12.3218 5.80234L12.0896 4.18813L13.2263 3.01867C13.3777 2.86285 13.4304 2.63594 13.3633 2.42922ZM11.0484 3.57801C10.9218 3.70828 10.8627 3.88996 10.8886 4.0698L11.0036 4.86992L10.2783 4.51324C10.1152 4.43309 9.92419 4.43309 9.76114 4.51324L9.03575 4.86992L9.15083 4.0698C9.17669 3.88996 9.11763 3.70832 8.99103 3.57801L8.42759 2.99832L9.22415 2.86051C9.40318 2.82953 9.55771 2.71727 9.64247 2.55656L10.0197 1.8416L10.3969 2.55656C10.4817 2.71727 10.6362 2.82953 10.8152 2.86051L11.6118 2.99832L11.0484 3.57801Z" fill="#052D41"/>
<path d="M19.876 3.73342C19.8139 3.54225 19.6581 3.39631 19.4634 3.3467L18.2453 3.03643L17.5389 1.9712C17.4291 1.80557 17.2448 1.70752 17.0442 1.70913C16.8455 1.71131 16.6614 1.81405 16.5553 1.98202L15.8878 3.03831L14.677 3.34674C14.4822 3.39635 14.3264 3.54233 14.2643 3.73346C14.2023 3.92459 14.2424 4.13424 14.3709 4.28889L15.1691 5.25014L15.0883 6.49702C15.0753 6.6976 15.166 6.89084 15.3286 7.00897C15.4912 7.12709 15.7028 7.15366 15.8898 7.07932L17.0537 6.61596L18.2558 7.08139C18.4438 7.15416 18.6541 7.12475 18.814 7.00737C18.9752 6.88905 19.065 6.69663 19.0521 6.49706L18.9712 5.25018L19.7695 4.28893C19.8979 4.1342 19.9381 3.92456 19.876 3.73342ZM17.9206 4.68084C17.8249 4.79608 17.777 4.94362 17.7866 5.09311L17.8232 5.65721L17.2622 5.43999C17.1941 5.41362 17.1224 5.40045 17.0506 5.40045C16.977 5.40045 16.9034 5.41432 16.8339 5.44202L16.3177 5.64752L16.3536 5.09311C16.3633 4.94362 16.3154 4.79608 16.2196 4.68084L15.8647 4.25342L16.4031 4.11627C16.5483 4.07932 16.6738 3.98811 16.7538 3.86151L17.0624 3.37311L17.3935 3.87229C17.4738 3.99346 17.5963 4.08042 17.7372 4.11627L18.2756 4.25342L17.9206 4.68084Z" fill="#052D41"/>
<path d="M5.3125 12.8906C4.98891 12.8906 4.72656 13.153 4.72656 13.4766V14.7266C4.72656 15.0502 4.98891 15.3125 5.3125 15.3125C5.63609 15.3125 5.89844 15.0502 5.89844 14.7266V13.4766C5.89844 13.153 5.63609 12.8906 5.3125 12.8906Z" fill="#052D41"/>
<path d="M10 12.8906C9.67641 12.8906 9.41406 13.153 9.41406 13.4766V14.7266C9.41406 15.0502 9.67641 15.3125 10 15.3125C10.3236 15.3125 10.5859 15.0502 10.5859 14.7266V13.4766C10.5859 13.153 10.3236 12.8906 10 12.8906Z" fill="#052D41"/>
<path d="M14.6875 12.8906C14.3639 12.8906 14.1016 13.153 14.1016 13.4766V14.7266C14.1016 15.0502 14.3639 15.3125 14.6875 15.3125C15.0111 15.3125 15.2734 15.0502 15.2734 14.7266V13.4766C15.2734 13.153 15.0111 12.8906 14.6875 12.8906Z" fill="#052D41"/>
</svg>
