<svg width="20" height="20" viewBox="0 0 20 20" fill="none" xmlns="http://www.w3.org/2000/svg">
<path d="M12.7239 6.63094L11.2047 6.41023L10.5254 5.03367C10.4268 4.83363 10.223 4.70703 10 4.70703C9.77695 4.70703 9.57328 4.83367 9.47457 5.03363L8.79515 6.41023L7.27613 6.63094C7.05543 6.66301 6.87203 6.81762 6.80312 7.02973C6.73418 7.24184 6.79168 7.47469 6.95136 7.63035L8.05054 8.7018L7.79105 10.2147C7.75336 10.4345 7.84371 10.6567 8.02414 10.7878C8.12621 10.8619 8.24711 10.8997 8.36859 10.8997C8.46183 10.8997 8.55546 10.8775 8.64117 10.8324L10 10.1182L11.3587 10.8324C11.445 10.8777 11.5401 10.8998 11.633 10.8997C11.9562 10.8993 12.2181 10.6371 12.2181 10.3138C12.2181 10.2688 12.213 10.225 12.2034 10.1829L11.9494 8.7018L13.0486 7.63035C13.2083 7.47469 13.2658 7.24184 13.1969 7.02973C13.1279 6.81762 12.9446 6.66301 12.7239 6.63094ZM10.9108 8.07769C10.7727 8.2123 10.7097 8.40625 10.7423 8.59633L10.8532 9.24273L10.2727 8.93758C10.102 8.84785 9.89804 8.84781 9.72738 8.93758L9.14679 9.24277L9.25765 8.59633C9.29027 8.40625 9.22722 8.2123 9.08914 8.07769L8.61953 7.61992L9.26851 7.52562C9.45937 7.49789 9.62433 7.37805 9.70968 7.20512L9.99996 6.61695L10.2902 7.20508C10.3755 7.37805 10.5405 7.49793 10.7314 7.52562L11.3804 7.61992L10.9108 8.07769Z" fill="#052D41"/>
<path d="M18.1588 2.51043H17.9907C18.072 2.30281 18.1171 2.07723 18.1171 1.84113C18.1171 0.825937 17.2912 0 16.276 0H3.72395C2.70871 0 1.88277 0.825898 1.88277 1.84113C1.88277 2.07719 1.92793 2.30281 2.00926 2.51043H1.84113C0.825937 2.51043 0 3.33637 0 4.35156C0 6.86273 1.04535 9.22133 2.94344 10.9929C4.31074 12.269 6.00324 13.1293 7.84504 13.5066V15.0625H6.86195C5.67367 15.0625 4.70695 16.0292 4.70695 17.2174V19.4141C4.70695 19.7377 4.9693 20 5.29289 20H14.7071C15.0307 20 15.293 19.7377 15.293 19.4141V17.2175C15.293 16.0293 14.3263 15.0625 13.138 15.0625H12.1549V13.5066C13.9967 13.1294 15.6893 12.2691 17.0566 10.9929C18.9546 9.22133 20 6.86273 20 4.35156C20 3.33637 19.174 2.51043 18.1588 2.51043ZM10.0002 12.5521C10.0002 12.5521 10.0001 12.5521 10 12.5521C8.39219 12.5521 7.0243 11.8023 6.04426 10.3837C4.98145 8.84547 4.38797 6.53691 4.31711 3.68227H15.6829C15.6121 6.53687 15.0186 8.84543 13.9558 10.3837C12.9757 11.8023 11.6079 12.552 10.0002 12.5521ZM3.05465 1.84113C3.05465 1.47211 3.35488 1.17188 3.72395 1.17188H16.276C16.645 1.17188 16.9453 1.47211 16.9453 1.84113C16.9453 2.2102 16.6451 2.51043 16.276 2.51043H3.72395C3.35488 2.51043 3.05465 2.2102 3.05465 1.84113ZM1.17188 4.35156C1.17188 3.98254 1.47207 3.6823 1.84113 3.6823H3.14484C3.21617 6.81609 3.86613 9.29285 5.08008 11.0499C5.125 11.1149 5.1709 11.1785 5.21723 11.2413C2.78492 9.7793 1.17188 7.23723 1.17188 4.35156ZM14.1211 17.2174V18.8281H5.87883V17.2175C5.87883 16.6754 6.31988 16.2344 6.86195 16.2344H8.43098H11.569H13.138C13.6801 16.2344 14.1211 16.6754 14.1211 17.2174ZM10.983 15.0625H9.01691V13.6795C9.3416 13.7089 9.66957 13.724 10 13.724H10H10.0002C10.3305 13.724 10.6584 13.709 10.983 13.6795V15.0625ZM14.7827 11.2413C14.8291 11.1785 14.875 11.115 14.9199 11.0499C16.1338 9.29289 16.7838 6.81613 16.8552 3.68234H18.1589C18.5279 3.68234 18.8282 3.98258 18.8282 4.3516C18.8281 7.23723 17.215 9.77934 14.7827 11.2413Z" fill="#052D41"/>
</svg>
