<svg width="14" height="14" viewBox="0 0 14 14" fill="none" xmlns="http://www.w3.org/2000/svg">
<path d="M8.9068 4.64166L7.8434 4.48716L7.3679 3.52357C7.29883 3.38354 7.15623 3.29492 7.00009 3.29492C6.84396 3.29492 6.70139 3.38357 6.63229 3.52354L6.1567 4.48716L5.09339 4.64166C4.9389 4.66411 4.81052 4.77233 4.76228 4.92081C4.71402 5.06929 4.75427 5.23228 4.86605 5.34125L5.63548 6.09126L5.45383 7.15028C5.42745 7.30417 5.49069 7.45968 5.61699 7.55144C5.68844 7.60334 5.77307 7.62978 5.85811 7.62978C5.92338 7.62978 5.98892 7.61422 6.04892 7.58267L7.00012 7.08271L7.95122 7.5827C8.01157 7.61441 8.07815 7.62986 8.14317 7.62981C8.36944 7.62951 8.55276 7.446 8.55276 7.21965C8.55276 7.18815 8.54923 7.1575 8.5425 7.12802L8.36468 6.09126L9.13414 5.34125C9.24592 5.23228 9.28617 5.06929 9.23791 4.92081C9.18965 4.77233 9.06129 4.66411 8.9068 4.64166ZM7.63767 5.65439C7.54101 5.74861 7.4969 5.88437 7.51971 6.01743L7.59731 6.46991L7.19095 6.2563C7.07149 6.1935 6.92873 6.19347 6.80926 6.2563L6.40285 6.46994L6.48045 6.01743C6.50329 5.88437 6.45915 5.74861 6.36249 5.65439L6.03377 5.33395L6.48806 5.26794C6.62166 5.24852 6.73713 5.16463 6.79688 5.04358L7.00007 4.63187L7.20323 5.04355C7.26298 5.16463 7.37845 5.24855 7.51205 5.26794L7.9664 5.33395L7.63767 5.65439Z" fill="#6C767D"/>
<path d="M12.7112 1.7573H12.5935C12.6504 1.61197 12.682 1.45406 12.682 1.28879C12.682 0.578156 12.1038 0 11.3932 0H2.60676C1.8961 0 1.31794 0.578129 1.31794 1.28879C1.31794 1.45403 1.34955 1.61197 1.40648 1.7573H1.28879C0.578156 1.7573 0 2.33546 0 3.04609C0 4.80391 0.731746 6.45493 2.06041 7.69502C3.01752 8.58832 4.20227 9.19054 5.49153 9.45462V10.5437H4.80337C3.97157 10.5437 3.29487 11.2205 3.29487 12.0522V13.5898C3.29487 13.8164 3.47851 14 3.70502 14H10.2949C10.5215 14 10.7051 13.8164 10.7051 13.5898V12.0522C10.7051 11.2205 10.0284 10.5438 9.19661 10.5438H8.50844V9.45465C9.7977 9.19056 10.9825 8.58834 11.9396 7.69502C13.2683 6.45493 14 4.80391 14 3.04609C14 2.33546 13.4218 1.7573 12.7112 1.7573ZM7.00014 8.78645C7.00011 8.78645 7.00005 8.78645 7.00003 8.78645C5.87453 8.78645 4.91701 8.26159 4.23098 7.26862C3.48701 6.19183 3.07158 4.57584 3.02198 2.57759H10.9781C10.9284 4.57581 10.513 6.1918 9.76905 7.26862C9.08302 8.26159 8.12555 8.78642 7.00014 8.78645ZM2.13825 1.28879C2.13825 1.03048 2.34842 0.820312 2.60676 0.820312H11.3932C11.6515 0.820312 11.8617 1.03048 11.8617 1.28879C11.8617 1.54714 11.6516 1.7573 11.3932 1.7573H2.60676C2.34842 1.7573 2.13825 1.54714 2.13825 1.28879ZM0.820312 3.04609C0.820312 2.78778 1.03045 2.57761 1.28879 2.57761H2.20139C2.25132 4.77127 2.70629 6.505 3.55605 7.73492C3.5875 7.78045 3.61963 7.82493 3.65206 7.86888C1.94945 6.84551 0.820312 5.06606 0.820312 3.04609ZM9.88479 12.0522V13.1797H4.11518V12.0522C4.11518 11.6728 4.42392 11.3641 4.80337 11.3641H5.90168H8.09829H9.19661C9.57608 11.3641 9.88479 11.6728 9.88479 12.0522ZM7.68813 10.5437H6.31184V9.57562C6.53912 9.59626 6.7687 9.60679 7 9.60679H7.00003H7.00014C7.23138 9.60679 7.46091 9.59629 7.68813 9.57562V10.5437ZM10.3479 7.86893C10.3803 7.82496 10.4125 7.78047 10.4439 7.73494C11.2937 6.50502 11.7487 4.77129 11.7986 2.57764H12.7112C12.9695 2.57764 13.1797 2.7878 13.1797 3.04612C13.1797 5.06606 12.0505 6.84554 10.3479 7.86893Z" fill="#6C767D"/>
</svg>
