<svg width="18" height="18" viewBox="0 0 18 18" fill="none" xmlns="http://www.w3.org/2000/svg">
<g clip-path="url(#clip0)">
<path d="M16.4751 3.11664C13.9667 2.43531 11.4433 1.37426 9.17773 0.0481598C9.06801 -0.0160357 8.93227 -0.0160708 8.82258 0.0481598C6.49196 1.41219 4.10488 2.41594 1.52504 3.11664C1.3719 3.15826 1.26562 3.29727 1.26562 3.4559V7.33694C1.26562 11.3244 3.12068 13.9635 4.67691 15.4752C6.35046 17.1009 8.29545 18 9.00016 18C9.70479 18 11.6497 17.1009 13.3233 15.4752C14.8795 13.9635 16.7345 11.3244 16.7345 7.33694V3.45593C16.7345 3.29727 16.6282 3.15826 16.4751 3.11664ZM12.8333 14.9709C11.1752 16.5817 9.39637 17.2969 9.00012 17.2969C8.60387 17.2969 6.82503 16.5817 5.16682 14.971C3.7079 13.5537 1.96872 11.0788 1.96872 7.33698V3.72361C4.44499 3.02847 6.74987 2.05639 9.00016 0.758106C11.1938 2.0218 13.6151 3.04278 16.0313 3.72344V7.33694C16.0314 11.0788 14.2922 13.5536 12.8333 14.9709Z" fill="#6F6B66"/>
<path d="M14.3833 4.69016C12.5919 4.10246 10.8378 3.35212 9.16971 2.45995C9.16897 2.45953 9.1682 2.45918 9.16746 2.45876C9.16739 2.45869 9.16725 2.45865 9.16718 2.45858C9.16697 2.45848 9.16676 2.45844 9.16655 2.45834C9.15502 2.45215 9.14292 2.44677 9.13065 2.44188C9.12756 2.44065 9.12446 2.43963 9.12137 2.43847C9.11184 2.43499 9.10207 2.4319 9.09212 2.42926C9.0885 2.42828 9.08491 2.42729 9.08122 2.42645C9.07141 2.42416 9.06143 2.42237 9.05127 2.42093C9.04789 2.42044 9.04462 2.4198 9.04125 2.41942C9.02814 2.41791 9.01481 2.41699 9.00135 2.41699C9.00128 2.41699 9.00121 2.41699 9.00114 2.41699C9.00064 2.41699 9.00019 2.4171 8.99969 2.4171C8.98665 2.41713 8.97382 2.41801 8.96109 2.41945C8.95751 2.41987 8.95403 2.42054 8.95051 2.42107C8.94056 2.42251 8.93072 2.4243 8.92105 2.42652C8.91736 2.4274 8.91363 2.42842 8.90994 2.4294C8.90006 2.43204 8.89036 2.43513 8.8809 2.43861C8.87774 2.43974 8.87457 2.44083 8.87148 2.44206C8.859 2.44705 8.84684 2.45247 8.83509 2.45879C8.83502 2.45883 8.83495 2.45883 8.83495 2.45886C8.83488 2.4589 8.83488 2.4589 8.83488 2.4589C8.83428 2.45925 8.83365 2.45957 8.83302 2.45985C7.162 3.35735 5.40725 4.10836 3.61754 4.69196C3.47288 4.73914 3.375 4.87407 3.375 5.02622V7.33635C3.375 8.55163 3.58506 9.70497 3.99931 10.7643C4.02912 10.8404 4.0602 10.9159 4.09208 10.9911C4.09381 10.9955 4.09585 10.9998 4.09778 11.0042C4.37594 11.657 4.73411 12.2757 5.16875 12.8537C5.17244 12.8587 5.17616 12.8637 5.18014 12.8685C5.39596 13.1542 5.6301 13.4301 5.8827 13.6951C6.50163 14.3445 7.88324 15.4698 8.88305 15.8228C8.88491 15.8235 8.88674 15.8239 8.88853 15.8245C8.89373 15.8263 8.89897 15.8278 8.90425 15.8293C8.90959 15.8309 8.91497 15.8322 8.92038 15.8335C8.92534 15.8346 8.93026 15.8358 8.93529 15.8367C8.94172 15.8379 8.94826 15.8388 8.95473 15.8396C8.95891 15.8402 8.96303 15.8408 8.96721 15.8413C8.97814 15.8423 8.98911 15.8429 9.00012 15.8429C9.01105 15.8429 9.02202 15.8423 9.03295 15.8413C9.03721 15.8408 9.04139 15.8402 9.04564 15.8396C9.05204 15.8388 9.05841 15.8379 9.06473 15.8367C9.0699 15.8358 9.07496 15.8346 9.08013 15.8334C9.08534 15.8322 9.09057 15.8309 9.09578 15.8294C9.10112 15.8279 9.1065 15.8262 9.11177 15.8245C9.11357 15.8239 9.11539 15.8235 9.11719 15.8228C10.1167 15.4699 11.4983 14.3446 12.1175 13.6951C12.3702 13.43 12.6046 13.154 12.8204 12.8681C12.8238 12.864 12.8268 12.8598 12.83 12.8556C13.2652 12.2772 13.6238 11.6579 13.9022 11.0045C13.9042 11 13.9063 10.9956 13.9081 10.9911C13.94 10.9159 13.971 10.8404 14.0009 10.7644C14.4152 9.705 14.6252 8.5517 14.6252 7.33635V5.02419C14.6252 4.87227 14.5276 4.73752 14.3833 4.69016ZM11.6086 13.21C11.1153 13.7275 10.1523 14.5202 9.35178 14.9476V14.4002C9.35178 14.2061 9.19436 14.0487 9.00022 14.0487C8.80605 14.0487 8.64866 14.2061 8.64866 14.4002V14.9477C7.8479 14.5203 6.88501 13.7275 6.3918 13.21C6.22509 13.0351 6.06783 12.8556 5.91898 12.6721L9.00022 9.59089L12.0814 12.6722C11.9325 12.8556 11.7754 13.0351 11.6086 13.21ZM12.5062 12.1026L9.24874 8.84511C9.18282 8.7792 9.09342 8.74214 9.00019 8.74214C8.90695 8.74214 8.81755 8.7792 8.75156 8.84511L5.49415 12.1026C5.2412 11.7311 5.02235 11.3437 4.83698 10.9416L9.00015 6.77824L13.1633 10.9415C12.9779 11.3438 12.7591 11.7311 12.5062 12.1026ZM13.9221 7.33635C13.9221 8.36681 13.7634 9.33389 13.4494 10.2332L9.24878 6.03247C9.18286 5.96655 9.09346 5.9295 9.00022 5.9295C8.90699 5.9295 8.81758 5.96655 8.7516 6.03247L4.55091 10.2332C4.23675 9.33393 4.07823 8.36681 4.07823 7.33638V5.2803H4.0782C5.64026 4.75703 7.17452 4.1091 8.64978 3.35032V3.85963C8.64978 4.0538 8.80718 4.2112 9.00135 4.2112C9.19548 4.2112 9.35291 4.0538 9.35291 3.85963V3.34923C10.8256 4.10411 12.3589 4.75151 13.9221 5.2778V7.33635H13.9221Z" fill="#6F6B66"/>
<path d="M9.00048 1.91755C9.19412 1.91755 9.35204 1.75963 9.35204 1.56599C9.35204 1.37228 9.19412 1.21436 9.00048 1.21436C8.80685 1.21436 8.64893 1.37231 8.64893 1.56599C8.64893 1.75963 8.80685 1.91755 9.00048 1.91755Z" fill="#6F6B66"/>
<path d="M6.19775 3.31152C6.39192 3.31152 6.54932 3.15412 6.54932 2.95996C6.54932 2.7658 6.39192 2.6084 6.19775 2.6084C6.00359 2.6084 5.84619 2.7658 5.84619 2.95996C5.84619 3.15412 6.00359 3.31152 6.19775 3.31152Z" fill="#6F6B66"/>
<path d="M3.26953 4.41846C3.46369 4.41846 3.6211 4.26106 3.6211 4.0669C3.6211 3.87273 3.46369 3.71533 3.26953 3.71533C3.07537 3.71533 2.91797 3.87273 2.91797 4.0669C2.91797 4.26106 3.07537 4.41846 3.26953 4.41846Z" fill="#6F6B66"/>
<path d="M2.67188 7.10791C2.86604 7.10791 3.02344 6.95051 3.02344 6.75635C3.02344 6.56219 2.86604 6.40479 2.67188 6.40479C2.47771 6.40479 2.32031 6.56219 2.32031 6.75635C2.32031 6.95051 2.47771 7.10791 2.67188 7.10791Z" fill="#6F6B66"/>
<path d="M2.97656 10.2148C3.17073 10.2148 3.32813 10.0574 3.32813 9.86328C3.32813 9.66912 3.17073 9.51172 2.97656 9.51172C2.7824 9.51172 2.625 9.66912 2.625 9.86328C2.625 10.0574 2.7824 10.2148 2.97656 10.2148Z" fill="#6F6B66"/>
<path d="M4.21875 13.0737C4.41292 13.0737 4.57032 12.9163 4.57032 12.7222C4.57032 12.528 4.41292 12.3706 4.21875 12.3706C4.02459 12.3706 3.86719 12.528 3.86719 12.7222C3.86719 12.9163 4.02459 13.0737 4.21875 13.0737Z" fill="#6F6B66"/>
<path d="M6.30176 15.395C6.49592 15.395 6.65332 15.2376 6.65332 15.0435C6.65332 14.8493 6.49592 14.6919 6.30176 14.6919C6.1076 14.6919 5.9502 14.8493 5.9502 15.0435C5.9502 15.2376 6.1076 15.395 6.30176 15.395Z" fill="#6F6B66"/>
<path d="M9 16.2378C8.80636 16.2378 8.64844 16.3956 8.64844 16.5894C8.64844 16.783 8.80636 16.941 9 16.941C9.19357 16.941 9.35163 16.783 9.35163 16.5894C9.35163 16.3956 9.19361 16.2378 9 16.2378Z" fill="#6F6B66"/>
<path d="M11.8032 3.31152C11.9974 3.31152 12.1548 3.15412 12.1548 2.95996C12.1548 2.7658 11.9974 2.6084 11.8032 2.6084C11.6091 2.6084 11.4517 2.7658 11.4517 2.95996C11.4517 3.15412 11.6091 3.31152 11.8032 3.31152Z" fill="#6F6B66"/>
<path d="M14.7314 4.41846C14.9256 4.41846 15.083 4.26106 15.083 4.0669C15.083 3.87273 14.9256 3.71533 14.7314 3.71533C14.5373 3.71533 14.3799 3.87273 14.3799 4.0669C14.3799 4.26106 14.5373 4.41846 14.7314 4.41846Z" fill="#6F6B66"/>
<path d="M15.3291 7.10791C15.5233 7.10791 15.6807 6.95051 15.6807 6.75635C15.6807 6.56219 15.5233 6.40479 15.3291 6.40479C15.1349 6.40479 14.9775 6.56219 14.9775 6.75635C14.9775 6.95051 15.1349 7.10791 15.3291 7.10791Z" fill="#6F6B66"/>
<path d="M15.025 9.51172C14.8308 9.51172 14.6733 9.66922 14.6733 9.86335C14.6733 10.0575 14.8308 10.2149 15.025 10.2149C15.2191 10.2149 15.3764 10.0575 15.3764 9.86335C15.3764 9.66922 15.2191 9.51172 15.025 9.51172Z" fill="#6F6B66"/>
<path d="M13.7822 13.0737C13.9764 13.0737 14.1338 12.9163 14.1338 12.7222C14.1338 12.528 13.9764 12.3706 13.7822 12.3706C13.5881 12.3706 13.4307 12.528 13.4307 12.7222C13.4307 12.9163 13.5881 13.0737 13.7822 13.0737Z" fill="#6F6B66"/>
<path d="M11.6996 14.6929C11.5054 14.6929 11.3481 14.8502 11.3481 15.0444C11.3481 15.2386 11.5055 15.396 11.6996 15.396C11.8939 15.396 12.0512 15.2386 12.0512 15.0444C12.0512 14.8502 11.8939 14.6929 11.6996 14.6929Z" fill="#6F6B66"/>
<path d="M9.00146 4.51904C8.80726 4.51904 8.6499 4.67647 8.6499 4.87061V4.8789C8.6499 5.07304 8.80726 5.23047 9.00146 5.23047C9.19555 5.23047 9.35302 5.07304 9.35302 4.8789V4.87061C9.35305 4.67647 9.19559 4.51904 9.00146 4.51904Z" fill="#6F6B66"/>
<path d="M8.64844 13.3828V13.3911C8.64844 13.5852 8.80583 13.7426 9 13.7426C9.1941 13.7426 9.35156 13.5852 9.35156 13.3911V13.3828C9.35156 13.1886 9.1941 13.0312 9 13.0312C8.80583 13.0312 8.64844 13.1886 8.64844 13.3828Z" fill="#6F6B66"/>
</g>
<defs>
<clipPath id="clip0">
<rect width="18" height="18" fill="white"/>
</clipPath>
</defs>
</svg>
