<svg width="25" height="25" viewBox="0 0 25 25" fill="none" xmlns="http://www.w3.org/2000/svg">
<path d="M24.7658 1.57448L24.6595 0.990125C24.5995 0.659565 24.3408 0.400985 24.0103 0.340851L23.4259 0.234647C20.9415 -0.216936 18.3701 -0.0128438 15.9899 0.825198C12.893 1.91552 10.8619 3.7097 9.07244 5.93309L8.12733 5.60873C6.5942 5.08229 4.8967 5.43286 3.6973 6.52329L0.712498 9.23676C-0.728239 10.5465 0.157635 12.9503 2.10449 13.011L4.74468 13.0933C4.60868 13.9131 4.86852 14.7682 5.47828 15.3779L9.62261 19.5223C10.2117 20.1114 11.0576 20.397 11.9073 20.2561L11.9895 22.8961C12.0503 24.8485 14.4584 25.7241 15.7638 24.288L18.4772 21.3032C19.5676 20.1038 19.9181 18.4063 19.3918 16.8732L19.0674 15.928C21.2326 14.1854 23.0577 12.1852 24.1753 9.0106C25.0133 6.63025 25.2175 4.05886 24.7658 1.57448ZM1.79742 10.4302L4.78223 7.71674C5.54607 7.0224 6.62722 6.79916 7.60362 7.1343L8.03948 7.28391C7.09811 8.57983 6.21253 9.99093 5.41855 11.5005L2.15465 11.3988C1.65286 11.3831 1.42573 10.7681 1.79742 10.4302ZM17.8662 17.3968C18.2013 18.3733 17.9782 19.4543 17.2837 20.2182L14.5702 23.203C14.2325 23.5746 13.6173 23.3479 13.6017 22.8458L13.4999 19.582C14.9675 18.8101 16.3773 17.9339 17.7165 16.961L17.8662 17.3968ZM18.8423 14.0182C16.741 15.8206 14.4124 17.354 11.9211 18.5758C11.5344 18.7655 11.0689 18.6875 10.7631 18.3816C10.7682 18.3816 10.8007 18.4193 6.61875 14.2372C6.31294 13.9314 6.23491 13.466 6.42459 13.0792C6.6312 12.6579 6.84749 12.2416 7.07174 11.8299L11.4466 16.2048C11.7616 16.5198 12.2721 16.5197 12.5871 16.2048C12.902 15.8898 12.902 15.3792 12.5871 15.0642L7.90686 10.384C8.84838 8.84663 9.88532 7.43195 11.0484 6.08103C13.967 2.69983 18.5564 0.990427 23.1724 1.82791C23.9871 6.31839 22.4186 10.942 18.8423 14.0182ZM14.2582 5.82598C12.0725 8.01161 13.634 11.7588 16.7164 11.7588C19.7959 11.7588 21.3627 8.01413 19.1745 5.82598C17.819 4.47052 15.6137 4.47052 14.2582 5.82598ZM18.0339 9.60165C17.3074 10.3281 16.1253 10.3281 15.3988 9.60165C14.6723 8.87516 14.6723 7.693 15.3988 6.9665C16.1254 6.24001 17.3074 6.24001 18.0339 6.9665C18.7604 7.693 18.7604 8.87516 18.0339 9.60165ZM1.23853 18.8615C0.923545 18.5466 0.923545 18.0359 1.23853 17.721L2.28288 16.6767C2.59781 16.3618 3.10847 16.3618 3.4234 16.6767C3.73838 16.9916 3.73838 17.5023 3.4234 17.8172L2.37905 18.8616C2.06407 19.1765 1.55346 19.1765 1.23853 18.8615ZM8.36389 21.6172C8.67887 21.9321 8.67887 22.4428 8.36389 22.7577L7.31959 23.8021C7.16207 23.9596 6.95571 24.0383 6.7493 24.0383C6.03732 24.0383 5.66947 23.1711 6.17901 22.6616L7.22331 21.6173C7.53835 21.3023 8.04895 21.3022 8.36389 21.6172ZM6.60227 19.5387L3.0562 23.0848C2.74116 23.3997 2.23061 23.3997 1.91568 23.0848C1.60069 22.7698 1.60069 22.2592 1.91568 21.9442L5.46175 18.3981C5.77673 18.0832 6.28734 18.0832 6.60227 18.3981C6.91725 18.7131 6.91725 19.2238 6.60227 19.5387Z" fill="white"/>
</svg>
