<svg width="50" height="50" viewBox="0 0 50 50" fill="none" xmlns="http://www.w3.org/2000/svg">
<path d="M24.9999 0C11.1929 0 0 11.1929 0 24.9999C0 38.807 11.1929 49.9999 24.9999 49.9999C38.807 49.9999 49.9999 38.807 49.9999 24.9999C49.9852 11.199 38.801 0.0147531 24.9999 0ZM35.5284 25.7965C35.3553 26.1437 35.074 26.4251 34.7267 26.5982V26.6071L20.441 33.75C19.5588 34.1908 18.4863 33.8331 18.0454 32.9508C17.92 32.7 17.8555 32.4231 17.8571 32.1428V17.8572C17.8566 16.8709 18.6557 16.0711 19.642 16.0706C19.9194 16.0705 20.193 16.1349 20.441 16.2589L34.7267 23.4018C35.6094 23.8417 35.9684 24.9138 35.5284 25.7965Z" fill="#6C767D"/>
</svg>
