<svg width="80" height="80" viewBox="0 0 80 80" fill="none" xmlns="http://www.w3.org/2000/svg">
<path d="M40 80C17.9431 80 0 62.0569 0 40C0 17.9431 17.9431 0 40 0C62.0569 0 80 17.9431 80 40C80 62.0569 62.0569 80 40 80ZM40 5C20.7001 5 5 20.7001 5 40C5 59.2999 20.7001 75 40 75C59.2999 75 75 59.2999 75 40C75 20.7001 59.2999 5 40 5Z" fill="#FF445A"/>
<path d="M27.6263 54.8733C26.9861 54.8733 26.3458 54.6304 25.8594 54.1403C24.8828 53.1637 24.8828 51.5804 25.8594 50.6039L50.6091 25.8535C51.5863 24.877 53.1696 24.877 54.1461 25.8535C55.1227 26.8301 55.1227 28.4133 54.1461 29.3905L29.3958 54.1403C28.9026 54.6304 28.2629 54.8733 27.6263 54.8733Z" fill="#FF445A"/>
<path d="M52.374 54.872C51.7343 54.872 51.0941 54.6291 50.6076 54.139L25.8579 29.3923C24.8807 28.4157 24.8807 26.8325 25.8579 25.8559C26.8344 24.8788 28.4177 24.8788 29.3943 25.8559L54.144 50.6057C55.1212 51.5822 55.1212 53.1655 54.144 54.1421C53.6545 54.6291 53.0143 54.872 52.374 54.872Z" fill="#FF445A"/>
</svg>
