<svg width="20" height="20" viewBox="0 0 20 20" fill="none" xmlns="http://www.w3.org/2000/svg">
<path d="M10.0002 0C5.6526 0 2.11557 3.53699 2.11557 7.88461C2.11557 10.5941 3.48948 12.9886 5.57709 14.4085V19.423C5.57709 19.6188 5.67635 19.8013 5.84076 19.9075C6.0051 20.0138 6.21221 20.0294 6.39077 19.9491L10.0002 18.325L13.6096 19.9492C13.6852 19.9832 13.7658 20 13.8463 20C13.9558 20 14.0648 19.9688 14.1596 19.9075C14.324 19.8013 14.4233 19.6188 14.4233 19.4231V14.4085C16.5109 12.9886 17.8848 10.5941 17.8848 7.88465C17.8848 3.53699 14.3478 0 10.0002 0ZM13.2694 18.5309L10.2369 17.1663C10.1616 17.1323 10.0809 17.1154 10.0002 17.1154C9.91948 17.1154 9.83873 17.1323 9.76346 17.1662L6.73096 18.5308V15.0607C7.02092 15.1929 7.31854 15.3065 7.62178 15.4023C7.63897 15.4078 7.65612 15.4134 7.67338 15.4187C7.71209 15.4306 7.75092 15.4421 7.78979 15.4534C7.81858 15.4618 7.84737 15.4702 7.87623 15.4783C7.9076 15.487 7.93909 15.4955 7.97057 15.5039C8.00729 15.5137 8.04409 15.5232 8.081 15.5325C8.10709 15.5391 8.13323 15.5455 8.1594 15.5517C8.20186 15.5619 8.24444 15.5717 8.28717 15.5812C8.30932 15.5861 8.33151 15.591 8.35369 15.5957C8.40049 15.6057 8.44744 15.6152 8.49459 15.6244C8.51377 15.6281 8.53295 15.6319 8.55217 15.6355C8.60209 15.6448 8.65221 15.6535 8.70244 15.6618C8.71967 15.6647 8.7369 15.6677 8.75416 15.6704C8.806 15.6787 8.85807 15.6863 8.9103 15.6936C8.92647 15.6958 8.9426 15.6982 8.95877 15.7004C9.01162 15.7073 9.06471 15.7136 9.11784 15.7196C9.13369 15.7213 9.14948 15.7233 9.16534 15.725C9.21834 15.7307 9.27155 15.7355 9.32487 15.74C9.34104 15.7414 9.35713 15.743 9.37334 15.7443C9.42588 15.7484 9.47865 15.7518 9.53151 15.7549C9.54846 15.7559 9.56533 15.7572 9.58237 15.7581C9.63576 15.7609 9.68936 15.7629 9.74303 15.7646C9.7592 15.7651 9.77526 15.766 9.79143 15.7664C9.8608 15.7682 9.93041 15.7692 10.0003 15.7692C10.0701 15.7692 10.1397 15.7682 10.209 15.7664C10.2252 15.766 10.2413 15.7651 10.2574 15.7646C10.3111 15.7629 10.3647 15.7609 10.4181 15.7581C10.4351 15.7572 10.452 15.7559 10.469 15.7549C10.5218 15.7518 10.5746 15.7485 10.6271 15.7443C10.6433 15.743 10.6594 15.7414 10.6756 15.74C10.7289 15.7355 10.7821 15.7306 10.8351 15.725C10.851 15.7234 10.8668 15.7214 10.8826 15.7196C10.9358 15.7136 10.9889 15.7073 11.0417 15.7004C11.0579 15.6982 11.074 15.6958 11.0902 15.6936C11.1424 15.6863 11.1944 15.6787 11.2463 15.6704C11.2636 15.6677 11.2808 15.6647 11.298 15.6618C11.3483 15.6535 11.3984 15.6448 11.4483 15.6355C11.4675 15.6319 11.4867 15.6281 11.5059 15.6244C11.553 15.6152 11.5999 15.6057 11.6468 15.5957C11.669 15.591 11.6912 15.5861 11.7133 15.5812C11.756 15.5717 11.7986 15.5619 11.8411 15.5517C11.8672 15.5454 11.8933 15.539 11.9195 15.5325C11.9564 15.5233 11.9931 15.5137 12.0299 15.5039C12.0614 15.4955 12.0929 15.4871 12.1242 15.4783C12.1531 15.4702 12.1819 15.4618 12.2107 15.4534C12.2496 15.442 12.2884 15.4306 12.3271 15.4187C12.3444 15.4133 12.3615 15.4077 12.3787 15.4023C12.6819 15.3065 12.9796 15.1929 13.2695 15.0607V18.5309H13.2694ZM12.1966 14.247C12.1736 14.255 12.1506 14.2629 12.1275 14.2706C12.0924 14.2823 12.0572 14.2939 12.0219 14.305C11.9807 14.3179 11.9395 14.3304 11.8981 14.3425C11.8689 14.3511 11.8397 14.3596 11.8104 14.3679C11.7556 14.3831 11.7007 14.3977 11.6456 14.4116C11.6251 14.4168 11.6044 14.4217 11.5839 14.4267C11.5299 14.4398 11.4757 14.4522 11.4214 14.4639C11.4078 14.4669 11.3942 14.47 11.3805 14.4728C11.3105 14.4875 11.2401 14.5011 11.1696 14.5135C11.1624 14.5147 11.1551 14.5158 11.1479 14.5171C11.0843 14.5281 11.0205 14.538 10.9566 14.5471C10.9422 14.5492 10.9278 14.5512 10.9133 14.5532C10.8451 14.5625 10.7769 14.571 10.7083 14.5782C10.7058 14.5785 10.7032 14.5788 10.7006 14.5791C10.6289 14.5866 10.5569 14.5927 10.4848 14.5978C10.4692 14.5989 10.4535 14.5998 10.4378 14.6008C10.3818 14.6045 10.3257 14.6073 10.2695 14.6096C10.2504 14.6104 10.2313 14.6111 10.2122 14.6118C10.1416 14.6139 10.071 14.6154 10.0002 14.6154C9.9294 14.6154 9.85873 14.6139 9.78815 14.6117C9.76901 14.6111 9.7499 14.6103 9.73084 14.6095C9.67463 14.6073 9.61858 14.6044 9.56252 14.6007C9.54686 14.5997 9.53119 14.5989 9.51553 14.5977C9.44346 14.5926 9.37151 14.5864 9.29975 14.579C9.29717 14.5787 9.29459 14.5784 9.29202 14.5781C9.2235 14.5709 9.15522 14.5624 9.08705 14.5532C9.07264 14.5512 9.05823 14.5492 9.04377 14.5471C8.97983 14.5379 8.91604 14.528 8.85244 14.517C8.84526 14.5158 8.83803 14.5147 8.8308 14.5134C8.76022 14.501 8.68987 14.4873 8.61983 14.4727C8.60619 14.4699 8.5926 14.4667 8.57893 14.4638C8.52463 14.4521 8.47045 14.4397 8.41651 14.4266C8.39588 14.4216 8.37526 14.4167 8.35475 14.4115C8.29963 14.3977 8.24471 14.383 8.18998 14.3678C8.16065 14.3596 8.13143 14.351 8.10225 14.3424C8.06092 14.3303 8.01963 14.3179 7.97846 14.3049C7.94311 14.2937 7.90791 14.2823 7.8728 14.2705C7.84967 14.2629 7.82666 14.2549 7.80369 14.247C5.1676 13.3344 3.2694 10.8271 3.2694 7.88461C3.2694 4.17328 6.28881 1.15383 10.0002 1.15383C13.7115 1.15383 16.731 4.17324 16.731 7.88461C16.731 10.8271 14.8327 13.3344 12.1966 14.247Z" fill="#052D41"/>
<path d="M13.4229 7.88453L14.5065 5.84781C14.6001 5.67214 14.5963 5.4607 14.4969 5.28839C14.3974 5.11609 14.2161 5.00714 14.0172 5.00027L11.7115 4.92039L10.4895 2.96359C10.3841 2.79484 10.1992 2.69226 10.0002 2.69226C9.80118 2.69226 9.61626 2.79484 9.51083 2.96359L8.28883 4.92039L5.98317 5.00027C5.7843 5.00714 5.60301 5.11609 5.50352 5.28839C5.40403 5.4607 5.40031 5.67214 5.49383 5.84781L6.57746 7.88453L5.49383 9.92124C5.40031 10.0969 5.40403 10.3084 5.50352 10.4807C5.60301 10.653 5.7843 10.7619 5.98317 10.7688L8.28883 10.8487L9.51083 12.8055C9.61622 12.9742 9.80118 13.0768 10.0002 13.0768C10.1992 13.0768 10.3841 12.9742 10.4895 12.8055L11.7115 10.8487L14.0172 10.7688C14.216 10.7619 14.3973 10.653 14.4968 10.4807C14.5963 10.3084 14.6 10.0969 14.5065 9.92124L13.4229 7.88453ZM11.3648 9.70613C11.1731 9.71277 10.9971 9.81437 10.8955 9.97714L10.0002 11.4108L9.10489 9.97718C9.00325 9.81441 8.82731 9.71285 8.63555 9.70617L6.94641 9.64761L7.74028 8.1555C7.83044 7.98609 7.83044 7.78296 7.74028 7.61355L6.94641 6.12144L8.63555 6.06289C8.82731 6.05625 9.00329 5.95464 9.10489 5.79187L10.0002 4.35832L10.8954 5.79191C10.9971 5.95468 11.173 6.05624 11.3648 6.06292L13.0539 6.12148L12.2601 7.61359C12.1699 7.783 12.1699 7.98617 12.2601 8.15554L13.054 9.64765L11.3648 9.70613Z" fill="#052D41"/>
</svg>
