<svg width="40" height="67" viewBox="0 0 40 67" fill="none" xmlns="http://www.w3.org/2000/svg">
<path d="M20 0C8.972 0 0 8.972 0 20C0 23.6818 2.98489 26.6667 6.66667 26.6667C10.3484 26.6667 13.3333 23.6818 13.3333 20C13.3333 16.324 16.324 13.3333 20 13.3333C23.676 13.3333 26.6667 16.324 26.6667 20C26.6667 22.8098 24.8916 25.3333 22.2489 26.2796C16.9164 28.1902 13.3333 33.2787 13.3333 38.9418V40C13.3333 43.6818 16.3182 46.6667 20 46.6667C23.6818 46.6667 26.6667 43.6818 26.6667 40V38.9418C26.6667 38.8947 26.7 38.8484 26.7453 38.832C34.6733 35.992 40 28.4244 40 20C40 8.972 31.028 0 20 0Z" fill="#052D41"/>
<path d="M20.0007 66.6667C23.6825 66.6667 26.6673 63.6819 26.6673 60C26.6673 56.3181 23.6825 53.3333 20.0007 53.3333C16.3188 53.3333 13.334 56.3181 13.334 60C13.334 63.6819 16.3188 66.6667 20.0007 66.6667Z" fill="#052D41"/>
</svg>
