<svg width="21" height="24" viewBox="0 0 21 24" fill="none" xmlns="http://www.w3.org/2000/svg">
<path fill-rule="evenodd" clip-rule="evenodd" d="M20.7266 6.10714C20.5443 5.67857 20.3255 5.33929 20.0703 5.08929L15.8047 0.910714C15.5495 0.660714 15.2031 0.446429 14.7656 0.267857C14.3281 0.0892857 13.9271 0 13.5625 0H1.3125C0.947917 0 0.638021 0.125 0.382812 0.375C0.127604 0.625 0 0.928571 0 1.28571V22.7143C0 23.0714 0.127604 23.375 0.382812 23.625C0.638021 23.875 0.947917 24 1.3125 24H19.6875C20.0521 24 20.362 23.875 20.6172 23.625C20.8724 23.375 21 23.0714 21 22.7143V7.28571C21 6.92857 20.9089 6.53571 20.7266 6.10714ZM14 6.85603V1.82031C14.2643 1.9096 14.4512 2.00781 14.5605 2.11496L18.8398 6.30692C18.9492 6.41406 19.0495 6.5971 19.1406 6.85603H14ZM19.25 22.2857V8.57143H13.5625C13.1979 8.57143 12.888 8.44643 12.6328 8.19643C12.3776 7.94643 12.25 7.64286 12.25 7.28571V1.71429H1.75V22.2857H19.25ZM13.3711 15.0921C12.9062 14.8242 12.5234 14.5742 12.2227 14.3421C11.3932 13.6814 10.7279 12.6189 10.2266 11.1546C10.3359 10.5385 10.3997 9.68136 10.418 8.58315V8.18136C10.418 8.13672 10.4134 8.101 10.4043 8.07422C10.4225 8.05636 10.4408 8.02065 10.459 7.96708C10.541 7.54743 10.5 7.24386 10.3359 7.05636C10.2266 6.92243 10.0671 6.85547 9.85742 6.85547H9.55664C9.27409 6.85547 9.08268 7.03404 8.98242 7.39118C8.86393 7.83761 8.83431 8.40681 8.89355 9.09877C8.9528 9.79074 9.0918 10.5028 9.31055 11.2349C8.98242 12.3599 8.50846 13.5296 7.88867 14.7439C7.38737 15.7439 6.89974 16.6233 6.42578 17.3823C6.42578 17.3644 6.41667 17.3465 6.39844 17.3287C6.31641 17.1948 6.21159 17.168 6.08398 17.2483C5.30924 17.6501 4.70768 18.0809 4.2793 18.5407C3.85091 19.0006 3.5957 19.409 3.51367 19.7662C3.47721 19.9983 3.50456 20.159 3.5957 20.2483C3.64128 20.284 3.66862 20.3064 3.67773 20.3153L4.00586 20.476C4.12435 20.5385 4.25195 20.5698 4.38867 20.5698C5.19987 20.5698 6.30273 19.4001 7.69727 17.0608C9.25586 16.534 11.0423 16.1635 13.0566 15.9492C13.6309 16.2439 14.2233 16.4805 14.834 16.659C15.4447 16.8376 15.9688 16.9269 16.4062 16.9269C16.9987 16.9269 17.3223 16.7573 17.377 16.418V16.4046L17.4043 16.3778C17.4134 16.3689 17.418 16.3599 17.418 16.351C17.5456 16.0831 17.5365 15.851 17.3906 15.6546C17.1172 15.2171 16.3105 14.9983 14.9707 14.9983C14.4421 14.9983 13.9089 15.0296 13.3711 15.0921ZM4.34766 19.8465C4.82161 19.6323 5.44596 18.9269 6.2207 17.7305C5.75586 18.0876 5.3571 18.4626 5.02441 18.8555C4.69173 19.2483 4.46615 19.5787 4.34766 19.8465ZM9.76172 9.29464C9.64323 8.49107 9.65234 7.90179 9.78906 7.52679V7.5C9.79818 7.49107 9.80273 7.48214 9.80273 7.47321C9.91211 7.59821 9.97135 7.75893 9.98047 7.95536C9.98047 7.96429 9.98503 7.97768 9.99414 7.99554C9.99414 8.00446 9.9987 8.01339 10.0078 8.02232C9.98047 8.05804 9.96224 8.09375 9.95312 8.12946C9.88932 8.48661 9.85742 8.67857 9.85742 8.70536C9.80273 9.03571 9.77083 9.23214 9.76172 9.29464ZM8.09375 16.3795C9.32422 15.8973 10.6185 15.5357 11.9766 15.2946C11.9583 15.2857 11.8991 15.2433 11.7988 15.1674C11.6986 15.0915 11.6257 15.0312 11.5801 14.9866C10.8874 14.3884 10.3086 13.6027 9.84375 12.6295C9.59766 13.3973 9.2194 14.2768 8.70898 15.2679C8.43555 15.7679 8.23047 16.1384 8.09375 16.3795ZM15.0117 15.8438C16.069 15.8438 16.707 15.9509 16.9258 16.1652C16.944 16.183 16.9531 16.1964 16.9531 16.2054C16.9167 16.2143 16.8346 16.2188 16.707 16.2188C16.2695 16.2188 15.7044 16.0938 15.0117 15.8438Z" fill="#051F2C"/>
</svg>
