<svg width="80" height="80" viewBox="0 0 80 80" fill="none" xmlns="http://www.w3.org/2000/svg">
<path d="M77.7117 10.9383C76.5348 9.7594 74.6253 9.75736 73.4484 10.9333L37.2776 47.0086L24.2273 32.8347C23.0996 31.6106 21.1931 31.5313 19.967 32.6588C18.7418 33.7864 18.6634 35.6939 19.7911 36.9191L34.967 53.4005C35.5228 54.0046 36.3006 54.3553 37.1207 54.3724C37.1428 54.3733 37.164 54.3733 37.1851 54.3733C37.9821 54.3733 38.7489 54.0567 39.3137 53.4939L77.7057 15.2025C78.8856 14.0267 78.8876 12.1172 77.7117 10.9383Z" fill="#6AE87B"/>
<path d="M76.9848 36.9848C75.3195 36.9848 73.9698 38.3345 73.9698 40C73.9698 58.7317 58.7317 73.9698 40 73.9698C21.2694 73.9698 6.03016 58.7317 6.03016 40C6.03016 21.2694 21.2694 6.03016 40 6.03016C41.6653 6.03016 43.0152 4.68047 43.0152 3.01516C43.0152 1.34969 41.6653 0 40 0C17.9437 0 0 17.9437 0 40C0 62.0553 17.9437 80 40 80C62.0553 80 80 62.0553 80 40C80 38.3347 78.6503 36.9848 76.9848 36.9848Z" fill="#6AE87B"/>
</svg>
