<svg width="27" height="27" viewBox="0 0 27 27" fill="none" xmlns="http://www.w3.org/2000/svg">
<g clip-path="url(#clip0)">
<path d="M5.8542 7.44585C8.55825 6.56397 11.1601 5.4486 13.6685 4.10115C16.155 5.43142 18.7961 6.56262 21.4794 7.44283V10.8682C21.4794 12.7278 21.139 14.4797 20.4535 16.0916C20.059 17.0198 19.5501 17.9015 18.9259 18.7309C18.6152 19.1436 18.276 19.5434 17.9082 19.9293C17.0293 20.8512 15.0551 22.4595 13.6669 22.9497C12.2787 22.4595 10.3042 20.8512 9.42554 19.9293C9.05763 19.5434 8.71846 19.1436 8.40778 18.7309C7.78351 17.9015 7.27445 17.0198 6.88018 16.0916C6.19467 14.4798 5.8543 12.7279 5.8543 10.8682L5.8542 7.44585ZM2.72916 5.1186V10.8683C2.72916 21.655 12.1389 26.1446 13.6668 26.1446C15.1946 26.1446 24.6042 21.655 24.6042 10.8683V5.1186C20.9372 4.12256 17.1007 2.52948 13.6668 0.519531C10.2211 2.53625 6.61748 4.06245 2.72916 5.1186Z" fill="#FF9B4B"/>
<path d="M13.6685 4.10156C11.1601 5.449 8.55824 6.56436 5.85419 7.44623V10.8686C5.85419 12.7282 6.19455 14.4801 6.88007 16.0919L13.6668 9.30523L20.4536 16.092C21.139 14.4801 21.4793 12.7282 21.4793 10.8686V7.44316C18.7961 6.56301 16.1551 5.43182 13.6685 4.10156Z" fill="#FFBA50"/>
<path d="M13.6668 9.30469L6.88016 16.0914C7.27443 17.0196 7.78349 17.9013 8.40776 18.7306L13.6669 13.4715L18.926 18.7307C19.5502 17.9014 20.0591 17.0196 20.4538 16.0915L13.6668 9.30469Z" fill="#EE4A4D"/>
<path d="M13.6669 13.4727L8.40775 18.7318C8.71853 19.1445 9.05769 19.5443 9.42561 19.9302C10.3043 20.8521 12.2787 22.4604 13.667 22.9506C15.0551 22.4604 17.0294 20.8521 17.9083 19.9302C18.2762 19.5443 18.6153 19.1445 18.9259 18.7318L13.6669 13.4727Z" fill="#FFBA50"/>
<path d="M24.7408 4.61729C21.0247 3.60792 17.2863 2.03599 13.9299 0.0713478C13.7673 -0.0237566 13.5663 -0.0238086 13.4038 0.0713478C9.951 2.09219 6.4146 3.57922 2.59263 4.61729C2.36576 4.67896 2.20831 4.8849 2.20831 5.1199V10.8696C2.20831 16.777 4.95653 20.6867 7.26205 22.9263C9.74137 25.3347 12.6228 26.6667 13.6668 26.6667C14.7107 26.6667 17.5921 25.3347 20.0714 22.9263C22.3769 20.6867 25.1251 16.777 25.1251 10.8696V5.11995C25.1251 4.8849 24.9676 4.67896 24.7408 4.61729ZM24.0834 10.8696C24.0834 16.413 21.5069 20.0795 19.3455 22.1792C16.8891 24.5655 14.2538 25.6251 13.6668 25.6251C13.0797 25.6251 10.4444 24.5655 7.98783 22.1793C5.82648 20.0796 3.24992 16.413 3.24992 10.8696V5.51651C6.91846 4.48667 10.3331 3.04656 13.6668 1.12322C16.9167 2.99536 20.5037 4.50792 24.0833 5.51631L24.0834 10.8696Z" fill="#000001"/>
<path d="M21.6419 6.9497C18.9879 6.07902 16.3893 4.9674 13.9181 3.64568C13.917 3.64505 13.9158 3.64453 13.9147 3.64391C13.9146 3.6438 13.9144 3.64375 13.9143 3.64365C13.914 3.64349 13.9137 3.64344 13.9134 3.64328C13.8963 3.63411 13.8784 3.62615 13.8602 3.61891C13.8556 3.61708 13.851 3.61557 13.8465 3.61385C13.8323 3.6087 13.8179 3.60411 13.8031 3.60021C13.7978 3.59875 13.7924 3.59729 13.787 3.59604C13.7724 3.59266 13.7576 3.59 13.7426 3.58786C13.7376 3.58714 13.7328 3.5862 13.7278 3.58563C13.7083 3.58339 13.6886 3.58203 13.6686 3.58203C13.6685 3.58203 13.6684 3.58203 13.6683 3.58203C13.6676 3.58203 13.6669 3.58219 13.6662 3.58219C13.6469 3.58224 13.6279 3.58354 13.609 3.58568C13.6037 3.5863 13.5985 3.58729 13.5933 3.58807C13.5786 3.59021 13.564 3.59286 13.5497 3.59615C13.5442 3.59745 13.5387 3.59896 13.5332 3.60042C13.5186 3.60432 13.5042 3.60891 13.4902 3.61406C13.4855 3.61573 13.4808 3.61734 13.4762 3.61917C13.4578 3.62656 13.4397 3.63458 13.4223 3.64396C13.4222 3.64401 13.4221 3.64401 13.4221 3.64406C13.422 3.64411 13.422 3.64411 13.422 3.64411C13.4211 3.64464 13.4202 3.6451 13.4193 3.64552C10.9437 4.97516 8.34403 6.08777 5.69261 6.95235C5.47828 7.02225 5.33328 7.22215 5.33328 7.44756V10.87C5.33328 12.6704 5.64448 14.379 6.25818 15.9484C6.30235 16.0611 6.34839 16.173 6.39563 16.2844C6.39818 16.2909 6.4012 16.2973 6.40407 16.3038C6.81615 17.271 7.34678 18.1876 7.99069 19.0438C7.99616 19.0512 8.00168 19.0586 8.00757 19.0658C8.32731 19.4891 8.67419 19.8978 9.04841 20.2904C9.96534 21.2525 12.0122 22.9196 13.4933 23.4426C13.4961 23.4436 13.4988 23.4441 13.5015 23.4451C13.5092 23.4477 13.5169 23.45 13.5247 23.4522C13.5326 23.4544 13.5406 23.4565 13.5486 23.4583C13.556 23.46 13.5633 23.4617 13.5707 23.4631C13.5803 23.4649 13.5899 23.4662 13.5995 23.4675C13.6057 23.4683 13.6118 23.4692 13.618 23.4699C13.6342 23.4714 13.6505 23.4723 13.6668 23.4723C13.683 23.4723 13.6992 23.4714 13.7154 23.4699C13.7217 23.4692 13.7279 23.4683 13.7342 23.4675C13.7437 23.4662 13.7531 23.4649 13.7625 23.4631C13.7701 23.4617 13.7776 23.46 13.7853 23.4582C13.793 23.4564 13.8008 23.4544 13.8085 23.4522C13.8164 23.45 13.8244 23.4476 13.8322 23.445C13.8348 23.4441 13.8375 23.4435 13.8402 23.4426C15.3209 22.9197 17.3678 21.2526 18.2852 20.2904C18.6595 19.8976 19.0067 19.4887 19.3264 19.0651C19.3315 19.0591 19.336 19.0529 19.3406 19.0467C19.9855 18.1897 20.5167 17.2723 20.9292 16.3043C20.9322 16.2976 20.9352 16.2911 20.9378 16.2844C20.9851 16.173 21.0311 16.0612 21.0753 15.9485C21.6891 14.3791 22.0002 12.6705 22.0002 10.87V7.44454C22.0003 7.21949 21.8557 7.01985 21.6419 6.9497ZM6.37506 7.82397C8.68924 7.04876 10.9622 6.08886 13.1478 4.96474V5.71928C13.1478 6.00694 13.381 6.24011 13.6686 6.24011C13.9562 6.24011 14.1895 6.00694 14.1895 5.71928V4.96313C16.3713 6.08147 18.6428 7.04058 20.9587 7.82027V10.8699C20.9587 12.3965 20.7237 13.8293 20.2584 15.1615L14.0351 8.9383C13.9375 8.84064 13.805 8.78575 13.6669 8.78575C13.5288 8.78575 13.3963 8.84064 13.2986 8.9383L7.07538 15.1617C6.60996 13.8294 6.37511 12.3966 6.37511 10.87L6.37506 7.82397ZM18.861 17.9311L14.0351 13.1052C13.9375 13.0075 13.805 12.9526 13.6669 12.9526C13.5288 12.9526 13.3963 13.0075 13.2986 13.1052L8.47278 17.931C8.09804 17.3807 7.77382 16.8069 7.49918 16.211L13.6669 10.0431L19.8346 16.211C19.5599 16.8069 19.2357 17.3807 18.861 17.9311ZM17.5313 19.5717C16.8004 20.3383 15.3738 21.5128 14.1878 22.1459V21.335C14.1878 21.0474 13.9546 20.8142 13.667 20.8142C13.3793 20.8142 13.1461 21.0474 13.1461 21.335V22.146C11.9598 21.5128 10.5333 20.3383 9.80263 19.5717C9.55565 19.3126 9.32268 19.0467 9.10216 18.7748L13.667 14.21L18.2318 18.7749C18.0112 19.0467 17.7783 19.3126 17.5313 19.5717Z" fill="#000001"/>
<path d="M13.1466 2.32173C13.1466 2.60861 13.3806 2.84257 13.6675 2.84257C13.9543 2.84257 14.1883 2.60861 14.1883 2.32173C14.1883 2.03474 13.9543 1.80078 13.6675 1.80078C13.3806 1.80078 13.1466 2.0348 13.1466 2.32173Z" fill="#000001"/>
<path d="M9.51534 4.90495C9.80298 4.90495 10.0362 4.67176 10.0362 4.38412C10.0362 4.09647 9.80298 3.86328 9.51534 3.86328C9.22771 3.86328 8.99454 4.09647 8.99454 4.38412C8.99454 4.67176 9.22771 4.90495 9.51534 4.90495Z" fill="#000001"/>
<path d="M5.1771 6.54558C5.46474 6.54558 5.69792 6.31239 5.69792 6.02474C5.69792 5.73709 5.46474 5.50391 5.1771 5.50391C4.88946 5.50391 4.65628 5.73709 4.65628 6.02474C4.65628 6.31239 4.88946 6.54558 5.1771 6.54558Z" fill="#000001"/>
<path d="M4.29165 10.5299C4.5793 10.5299 4.81248 10.2968 4.81248 10.0091C4.81248 9.72147 4.5793 9.48828 4.29165 9.48828C4.004 9.48828 3.77081 9.72147 3.77081 10.0091C3.77081 10.2968 4.004 10.5299 4.29165 10.5299Z" fill="#000001"/>
<path d="M4.74298 15.1315C5.03061 15.1315 5.26378 14.8983 5.26378 14.6107C5.26378 14.323 5.03061 14.0898 4.74298 14.0898C4.45534 14.0898 4.22217 14.323 4.22217 14.6107C4.22217 14.8983 4.45534 15.1315 4.74298 15.1315Z" fill="#000001"/>
<path d="M6.58337 19.3659C6.87102 19.3659 7.10421 19.1327 7.10421 18.8451C7.10421 18.5574 6.87102 18.3242 6.58337 18.3242C6.29572 18.3242 6.06253 18.5574 6.06253 18.8451C6.06253 19.1327 6.29572 19.3659 6.58337 19.3659Z" fill="#000001"/>
<path d="M9.669 22.8073C9.95663 22.8073 10.1898 22.5741 10.1898 22.2865C10.1898 21.9988 9.95663 21.7656 9.669 21.7656C9.38137 21.7656 9.14819 21.9988 9.14819 22.2865C9.14819 22.5741 9.38137 22.8073 9.669 22.8073Z" fill="#000001"/>
<path d="M13.6669 24.0586C13.38 24.0586 13.146 24.2924 13.146 24.5794C13.146 24.8663 13.38 25.1003 13.6669 25.1003C13.9536 25.1003 14.1878 24.8663 14.1878 24.5794C14.1878 24.2924 13.9536 24.0586 13.6669 24.0586Z" fill="#000001"/>
<path d="M17.8193 4.90495C18.1069 4.90495 18.3401 4.67176 18.3401 4.38412C18.3401 4.09647 18.1069 3.86328 17.8193 3.86328C17.5316 3.86328 17.2984 4.09647 17.2984 4.38412C17.2984 4.67176 17.5316 4.90495 17.8193 4.90495Z" fill="#000001"/>
<path d="M22.1576 6.54558C22.4453 6.54558 22.6785 6.31239 22.6785 6.02474C22.6785 5.73709 22.4453 5.50391 22.1576 5.50391C21.8699 5.50391 21.6366 5.73709 21.6366 6.02474C21.6366 6.31239 21.8699 6.54558 22.1576 6.54558Z" fill="#000001"/>
<path d="M23.043 10.5299C23.3307 10.5299 23.564 10.2968 23.564 10.0091C23.564 9.72147 23.3307 9.48828 23.043 9.48828C22.7553 9.48828 22.5221 9.72147 22.5221 10.0091C22.5221 10.2968 22.7553 10.5299 23.043 10.5299Z" fill="#000001"/>
<path d="M22.5923 14.0938C22.3047 14.0938 22.0714 14.3271 22.0714 14.6147C22.0714 14.9023 22.3047 15.1356 22.5923 15.1356C22.8799 15.1356 23.1129 14.9023 23.1129 14.6147C23.1129 14.3272 22.8799 14.0938 22.5923 14.0938Z" fill="#000001"/>
<path d="M20.7513 19.3659C21.0389 19.3659 21.2721 19.1327 21.2721 18.8451C21.2721 18.5574 21.0389 18.3242 20.7513 18.3242C20.4636 18.3242 20.2304 18.5574 20.2304 18.8451C20.2304 19.1327 20.4636 19.3659 20.7513 19.3659Z" fill="#000001"/>
<path d="M17.6662 21.7656C17.3786 21.7656 17.1455 21.9987 17.1455 22.2864C17.1455 22.5741 17.3786 22.8072 17.6662 22.8072C17.954 22.8072 18.1871 22.5741 18.1871 22.2864C18.1871 21.9987 17.954 21.7656 17.6662 21.7656Z" fill="#000001"/>
<path d="M13.6684 7.74542C13.956 7.74542 14.1892 7.51218 14.1892 7.22456V7.21227C14.1892 6.92465 13.956 6.69141 13.6684 6.69141C13.3807 6.69141 13.1476 6.92465 13.1476 7.21227V7.22456C13.1476 7.51218 13.3807 7.74542 13.6684 7.74542Z" fill="#000001"/>
<path d="M13.6666 19.3047C13.379 19.3047 13.1458 19.5379 13.1458 19.8255V19.8378C13.1458 20.1254 13.379 20.3586 13.6666 20.3586C13.9542 20.3586 14.1875 20.1254 14.1875 19.8378V19.8255C14.1875 19.5379 13.9542 19.3047 13.6666 19.3047Z" fill="#000001"/>
</g>
<defs>
<clipPath id="clip0">
<rect width="26.6667" height="26.6667" fill="white" transform="translate(0.333344)"/>
</clipPath>
</defs>
</svg>
