<svg width="24" height="30" viewBox="0 0 24 30" fill="none" xmlns="http://www.w3.org/2000/svg">
<path d="M19.5 12.3327V7.49997C19.5 3.36548 16.1364 0 12 0C7.86461 0 4.50006 3.36548 4.50006 7.49997V12.3327H8.25012V7.49997C8.24996 5.43079 9.93177 3.74991 12 3.74991C14.0673 3.74991 15.7501 5.43089 15.7501 7.49997V12.3327H19.5Z" fill="#051F2C"/>
<path d="M0.75 16.8748V26.2499C0.75 28.3209 2.42911 30 4.50006 30H19.5001C21.5709 30 23.25 28.3209 23.25 26.2499V16.8748C23.25 14.8039 21.5709 13.1248 19.5 13.1248H4.50006C2.42911 13.1249 0.75 14.8039 0.75 16.8748ZM12 18.7499C13.0355 18.7499 13.875 19.5886 13.875 20.6249C13.875 21.3115 13.4877 21.8865 12.9374 22.2124V25.3123C12.9374 25.8306 12.5181 26.2499 11.9999 26.2499C11.4816 26.2499 11.0624 25.8306 11.0624 25.3123V22.2124C10.5121 21.8865 10.1248 21.3115 10.1248 20.6249C10.1251 19.5884 10.9645 18.7499 12 18.7499Z" fill="#051F2C"/>
</svg>
