<svg width="16" height="16" viewBox="0 0 16 16" fill="none" xmlns="http://www.w3.org/2000/svg">
<path d="M8.77304 0.82996L10.5776 4.48653C10.7031 4.74085 10.9458 4.91707 11.2264 4.95779L15.2618 5.54419C15.9687 5.64698 16.2507 6.5154 15.7394 7.01369L12.8194 9.85991C12.6165 10.0578 12.5237 10.3432 12.5718 10.6225L13.261 14.6416C13.3818 15.3454 12.6429 15.8821 12.0108 15.55L8.40158 13.6527C8.1506 13.5208 7.85055 13.5208 7.59957 13.6527L3.99039 15.55C3.35827 15.8824 2.61935 15.3454 2.74016 14.6416L3.42936 10.6225C3.47742 10.3432 3.38464 10.0578 3.18172 9.85991L0.261734 7.01369C-0.249572 6.51507 0.032447 5.64665 0.739331 5.54419L4.77471 4.95779C5.05539 4.91707 5.29803 4.74085 5.42352 4.48653L7.22811 0.82996C7.54384 0.189493 8.45698 0.189493 8.77304 0.82996Z" fill="#ED8A19"/>
</svg>
